  0
SECTION
  2
HEADER
  9
$ACADVER
  1
AC1015
  9
$ACADMAINTVER
 70
     6
  9
$DWGCODEPAGE
  3
ANSI_1252
  9
$INSBASE
 10
0.0
 20
0.0
 30
0.0
  9
$EXTMIN
 10
0.0
 20
0.0
 30
0.0
  9
$EXTMAX
 10
1189.0
 20
841.0
 30
0.0
  9
$LIMMIN
 10
0.0
 20
0.0
  9
$LIMMAX
 10
1189.0
 20
841.0
  9
$ORTHOMODE
 70
     0
  9
$REGENMODE
 70
     1
  9
$FILLMODE
 70
     1
  9
$QTEXTMODE
 70
     0
  9
$MIRRTEXT
 70
     1
  9
$LTSCALE
 40
1.0
  9
$ATTMODE
 70
     1
  9
$TEXTSIZE
 40
3.5
  9
$TRACEWID
 40
1.0
  9
$TEXTSTYLE
  7
Standard
  9
$CLAYER
  8
0
  9
$CELTYPE
  6
ByLayer
  9
$CECOLOR
 62
   256
  9
$CELTSCALE
 40
1.0
  9
$DISPSILH
 70
     0
  9
$DIMSCALE
 40
1.0
  9
$DIMASZ
 40
3.302
  9
$DIMEXO
 40
1.0
  9
$DIMDLI
 40
3.75
  9
$DIMRND
 40
0.0
  9
$DIMDLE
 40
0.0
  9
$DIMEXE
 40
1.0
  9
$DIMTP
 40
0.0
  9
$DIMTM
 40
0.0
  9
$DIMTXT
 40
3.5
  9
$DIMCEN
 40
2.5
  9
$DIMTSZ
 40
0.0
  9
$DIMTOL
 70
     0
  9
$DIMLIM
 70
     0
  9
$DIMTIH
 70
     1
  9
$DIMTOH
 70
     1
  9
$DIMSE1
 70
     0
  9
$DIMSE2
 70
     0
  9
$DIMTAD
 70
     1
  9
$DIMZIN
 70
     1
  9
$DIMBLK
  1

  9
$DIMASO
 70
     1
  9
$DIMSHO
 70
     1
  9
$DIMPOST
  1

  9
$DIMAPOST
  1

  9
$DIMALT
 70
     0
  9
$DIMALTD
 70
     3
  9
$DIMALTF
 40
0.0393700787
  9
$DIMLFAC
 40
1.0
  9
$DIMTOFL
 70
     1
  9
$DIMTVP
 40
0.0
  9
$DIMTIX
 70
     0
  9
$DIMSOXD
 70
     0
  9
$DIMSAH
 70
     0
  9
$DIMBLK1
  1

  9
$DIMBLK2
  1

  9
$DIMSTYLE
  2
ISO-25
  9
$DIMCLRD
 70
     0
  9
$DIMCLRE
 70
     0
  9
$DIMCLRT
 70
     0
  9
$DIMTFAC
 40
1.0
  9
$DIMGAP
 40
1.524
  9
$DIMJUST
 70
     0
  9
$DIMSD1
 70
     0
  9
$DIMSD2
 70
     0
  9
$DIMTOLJ
 70
     0
  9
$DIMTZIN
 70
     1
  9
$DIMALTZ
 70
     0
  9
$DIMALTTZ
 70
     0
  9
$DIMUPT
 70
     0
  9
$DIMDEC
 70
     2
  9
$DIMTDEC
 70
     2
  9
$DIMALTU
 70
     2
  9
$DIMALTTD
 70
     3
  9
$DIMTXSTY
  7
Standard
  9
$DIMAUNIT
 70
     0
  9
$DIMADEC
 70
     2
  9
$DIMALTRND
 40
0.0
  9
$DIMAZIN
 70
     0
  9
$DIMDSEP
 70
    44
  9
$DIMATFIT
 70
     3
  9
$DIMFRAC
 70
     0
  9
$DIMLDRBLK
  1

  9
$DIMLUNIT
 70
     2
  9
$DIMLWD
 70
    -2
  9
$DIMLWE
 70
    -2
  9
$DIMTMOVE
 70
     0
  9
$LUNITS
 70
     2
  9
$LUPREC
 70
     2
  9
$SKETCHINC
 40
1.0
  9
$FILLETRAD
 40
10.0
  9
$AUNITS
 70
     0
  9
$AUPREC
 70
     2
  9
$MENU
  1
.
  9
$ELEVATION
 40
0.0
  9
$PELEVATION
 40
0.0
  9
$THICKNESS
 40
0.0
  9
$LIMCHECK
 70
     0
  9
$CHAMFERA
 40
0.0
  9
$CHAMFERB
 40
0.0
  9
$CHAMFERC
 40
0.0
  9
$CHAMFERD
 40
0.0
  9
$SKPOLY
 70
     0
  9
$TDCREATE
 40
2460748.869669259
  9
$TDUCREATE
 40
2460748.640502593
  9
$TDUPDATE
 40
2460748.869669792
  9
$TDUUPDATE
 40
2460748.640503125
  9
$TDINDWG
 40
0.0000000116
  9
$TDUSRTIMER
 40
0.0000000116
  9
$USRTIMER
 70
     1
  9
$ANGBASE
 50
0.0
  9
$ANGDIR
 70
     0
  9
$PDMODE
 70
     0
  9
$PDSIZE
 40
-1.0
  9
$PLINEWID
 40
0.0
  9
$SPLFRAME
 70
     0
  9
$SPLINETYPE
 70
     6
  9
$SPLINESEGS
 70
     8
  9
$HANDSEED
  5
170
  9
$SURFTAB1
 70
     6
  9
$SURFTAB2
 70
     6
  9
$SURFTYPE
 70
     6
  9
$SURFU
 70
     6
  9
$SURFV
 70
     6
  9
$UCSBASE
  2

  9
$UCSNAME
  2

  9
$UCSORG
 10
0.0
 20
0.0
 30
0.0
  9
$UCSXDIR
 10
1.0
 20
0.0
 30
0.0
  9
$UCSYDIR
 10
0.0
 20
1.0
 30
0.0
  9
$UCSORTHOREF
  2

  9
$UCSORTHOVIEW
 70
     0
  9
$UCSORGTOP
 10
0.0
 20
0.0
 30
0.0
  9
$UCSORGBOTTOM
 10
0.0
 20
0.0
 30
0.0
  9
$UCSORGLEFT
 10
0.0
 20
0.0
 30
0.0
  9
$UCSORGRIGHT
 10
0.0
 20
0.0
 30
0.0
  9
$UCSORGFRONT
 10
0.0
 20
0.0
 30
0.0
  9
$UCSORGBACK
 10
0.0
 20
0.0
 30
0.0
  9
$PUCSBASE
  2

  9
$PUCSNAME
  2

  9
$PUCSORG
 10
0.0
 20
0.0
 30
0.0
  9
$PUCSXDIR
 10
1.0
 20
0.0
 30
0.0
  9
$PUCSYDIR
 10
0.0
 20
1.0
 30
0.0
  9
$PUCSORTHOREF
  2

  9
$PUCSORTHOVIEW
 70
     0
  9
$PUCSORGTOP
 10
0.0
 20
0.0
 30
0.0
  9
$PUCSORGBOTTOM
 10
0.0
 20
0.0
 30
0.0
  9
$PUCSORGLEFT
 10
0.0
 20
0.0
 30
0.0
  9
$PUCSORGRIGHT
 10
0.0
 20
0.0
 30
0.0
  9
$PUCSORGFRONT
 10
0.0
 20
0.0
 30
0.0
  9
$PUCSORGBACK
 10
0.0
 20
0.0
 30
0.0
  9
$USERI1
 70
     0
  9
$USERI2
 70
     0
  9
$USERI3
 70
     0
  9
$USERI4
 70
     0
  9
$USERI5
 70
     0
  9
$USERR1
 40
0.0
  9
$USERR2
 40
0.0
  9
$USERR3
 40
0.0
  9
$USERR4
 40
0.0
  9
$USERR5
 40
0.0
  9
$WORLDVIEW
 70
     1
  9
$SHADEDGE
 70
     3
  9
$SHADEDIF
 70
    70
  9
$TILEMODE
 70
     1
  9
$MAXACTVP
 70
    64
  9
$PINSBASE
 10
0.0
 20
0.0
 30
0.0
  9
$PLIMCHECK
 70
     0
  9
$PEXTMIN
 10
1.0000000000E+20
 20
1.0000000000E+20
 30
1.0000000000E+20
  9
$PEXTMAX
 10
-1.0000000000E+20
 20
-1.0000000000E+20
 30
-1.0000000000E+20
  9
$PLIMMIN
 10
0.0
 20
0.0
  9
$PLIMMAX
 10
420.0
 20
297.0
  9
$UNITMODE
 70
     0
  9
$VISRETAIN
 70
     1
  9
$PLINEGEN
 70
     0
  9
$PSLTSCALE
 70
     1
  9
$TREEDEPTH
 70
  3020
  9
$CMLSTYLE
  2
Standard
  9
$CMLJUST
 70
     0
  9
$CMLSCALE
 40
20.0
  9
$PROXYGRAPHICS
 70
     1
  9
$MEASUREMENT
 70
     1
  9
$CELWEIGHT
370
    -1
  9
$ENDCAPS
280
     0
  9
$JOINSTYLE
280
     0
  9
$LWDISPLAY
290
     1
  9
$INSUNITS
 70
     4
  9
$HYPERLINKBASE
  1

  9
$STYLESHEET
  1

  9
$XEDIT
290
     1
  9
$CEPSNTYPE
380
     0
  9
$PSTYLEMODE
290
     1
  9
$FINGERPRINTGUID
  2
{fd80c54f-f217-456f-bbf7-8e5671b20fe9}
  9
$VERSIONGUID
  2
{FAEB1C32-E019-11D5-929B-00C0DF256EC4}
  9
$EXTNAMES
290
     1
  9
$PSVPSCALE
 40
0.0
  9
$OLESTARTUP
290
     0
  0
ENDSEC
  0
SECTION
  2
CLASSES
  0
CLASS
  1
ACDBDICTIONARYWDFLT
  2
AcDbDictionaryWithDefault
  3
ObjectDBX Classes
 90
        0
280
     0
281
     0
  0
CLASS
  1
VISUALSTYLE
  2
AcDbVisualStyle
  3
ObjectDBX Classes
 90
     4095
280
     0
281
     0
  0
CLASS
  1
MATERIAL
  2
AcDbMaterial
  3
ObjectDBX Classes
 90
     1153
280
     0
281
     0
  0
CLASS
  1
SCALE
  2
AcDbScale
  3
ObjectDBX Classes
 90
     1153
280
     0
281
     0
  0
CLASS
  1
TABLESTYLE
  2
AcDbTableStyle
  3
ObjectDBX Classes
 90
     4095
280
     0
281
     0
  0
CLASS
  1
MLEADERSTYLE
  2
AcDbMLeaderStyle
  3
ACDB_MLEADERSTYLE_CLASS
 90
     4095
280
     0
281
     0
  0
CLASS
  1
SUN
  2
AcDbSun
  3
SCENEOE
 90
     1153
280
     0
281
     0
  0
CLASS
  1
ACDBPLACEHOLDER
  2
AcDbPlaceHolder
  3
ObjectDBX Classes
 90
        0
280
     0
281
     0
  0
CLASS
  1
LAYOUT
  2
AcDbLayout
  3
ObjectDBX Classes
 90
        0
280
     0
281
     0
  0
ENDSEC
  0
SECTION
  2
TABLES
  0
TABLE
  2
VPORT
  5
8
330
0
100
AcDbSymbolTable
 70
     1
  0
VPORT
  5
29
330
8
100
AcDbSymbolTableRecord
100
AcDbViewportTableRecord
  2
*Active
 70
     0
 10
0.0
 20
0.0
 11
1.0
 21
1.0
 12
594.5
 22
420.5
 13
0.0
 23
0.0
 14
10.0
 24
10.0
 15
10.0
 25
10.0
 16
0.0
 26
0.0
 36
1.0
 17
0.0
 27
0.0
 37
0.0
 40
841.0
 41
1.4137931034
 42
50.0
 43
0.0
 44
0.0
 50
0.0
 51
0.0
 71
     0
 72
  2000
 73
     1
 74
     3
 75
     0
 76
     0
 77
     0
 78
     0
281
     0
 65
     1
110
0.0
120
0.0
130
0.0
111
1.0
121
0.0
131
0.0
112
0.0
122
1.0
132
0.0
 79
     0
146
0.0
  0
ENDTAB
  0
TABLE
  2
LTYPE
  5
5
330
0
100
AcDbSymbolTable
 70
     6
  0
LTYPE
  5
14
330
5
100
AcDbSymbolTableRecord
100
AcDbLinetypeTableRecord
  2
ByBlock
 70
     0
  3

 72
    65
 73
     0
 40
0.0
  0
LTYPE
  5
15
330
5
100
AcDbSymbolTableRecord
100
AcDbLinetypeTableRecord
  2
ByLayer
 70
     0
  3

 72
    65
 73
     0
 40
0.0
  0
LTYPE
  5
16
330
5
100
AcDbSymbolTableRecord
100
AcDbLinetypeTableRecord
  2
Continuous
 70
     0
  3
Solid line
 72
    65
 73
     0
 40
0.0
  0
LTYPE
  5
6E
330
5
100
AcDbSymbolTableRecord
100
AcDbLinetypeTableRecord
  2
HIDDEN
 70
     0
  3
Hidden __ __ __ __ __ __ __ __ __ __ __ __ __ __
 72
    65
 73
     2
 40
1.905
 49
1.27
 74
     0
 49
-0.635
 74
     0
  0
LTYPE
  5
6F
330
5
100
AcDbSymbolTableRecord
100
AcDbLinetypeTableRecord
  2
PHANTOM
 70
     0
  3
Phantom ______  __  __  ______  __  __  ______
 72
    65
 73
     6
 40
12.7
 49
6.35
 74
     0
 49
-1.27
 74
     0
 49
1.27
 74
     0
 49
-1.27
 74
     0
 49
1.27
 74
     0
 49
-1.27
 74
     0
  0
LTYPE
  5
70
330
5
100
AcDbSymbolTableRecord
100
AcDbLinetypeTableRecord
  2
CENTER
 70
     0
  3
Center ____ _ ____ _ ____ _ ____ _ ____ _ ____
 72
    65
 73
     4
 40
10.16
 49
6.35
 74
     0
 49
-1.27
 74
     0
 49
1.27
 74
     0
 49
-1.27
 74
     0
  0
LTYPE
  5
71
330
5
100
AcDbSymbolTableRecord
100
AcDbLinetypeTableRecord
  2
CENTERX2
 70
     0
  3
Center (2x) ________  __  ________  __  _____
 72
    65
 73
     4
 40
20.32
 49
12.7
 74
     0
 49
-2.54
 74
     0
 49
2.54
 74
     0
 49
-2.54
 74
     0
  0
LTYPE
  5
72
330
5
100
AcDbSymbolTableRecord
100
AcDbLinetypeTableRecord
  2
DOT2
 70
     0
  3
Dot (.5x) ........................................
 72
    65
 73
     2
 40
0.635
 49
0.0
 74
     0
 49
-0.635
 74
     0
  0
ENDTAB
  0
TABLE
  2
LAYER
  5
2
330
0
100
AcDbSymbolTable
 70
     1
  0
LAYER
  5
10
330
2
100
AcDbSymbolTableRecord
100
AcDbLayerTableRecord
  2
0
 70
     0
 62
     7
  6
Continuous
370
    -3
390
F
  0
ENDTAB
  0
TABLE
  2
STYLE
  5
3
330
0
100
AcDbSymbolTable
 70
     1
  0
STYLE
  5
11
330
3
100
AcDbSymbolTableRecord
100
AcDbTextStyleTableRecord
  2
Standard
 70
     0
 40
0.0
 41
1.0
 50
0.0
 71
     0
 42
3.5
  3
txt
  4

  0
ENDTAB
  0
TABLE
  2
VIEW
  5
6
330
0
100
AcDbSymbolTable
 70
     0
  0
ENDTAB
  0
TABLE
  2
UCS
  5
7
330
0
100
AcDbSymbolTable
 70
     0
  0
ENDTAB
  0
TABLE
  2
APPID
  5
9
330
0
100
AcDbSymbolTable
 70
     1
  0
APPID
  5
12
330
9
100
AcDbSymbolTableRecord
100
AcDbRegAppTableRecord
  2
ACAD
 70
     0
  0
ENDTAB
  0
TABLE
  2
DIMSTYLE
  5
A
330
0
100
AcDbSymbolTable
 70
     1
100
AcDbDimStyleTable
  0
DIMSTYLE
105
27
330
A
100
AcDbSymbolTableRecord
100
AcDbDimStyleTableRecord
  2
ISO-25
 70
     0
 41
2.5
 42
0.625
 43
3.75
 44
1.25
 73
     0
 74
     0
 77
     1
 78
     8
140
2.5
141
2.5
143
0.0393700787
147
0.625
171
     3
172
     1
178
     0
271
     2
272
     2
274
     3
278
    44
283
     0
284
     8
340
11
  0
ENDTAB
  0
TABLE
  2
BLOCK_RECORD
  5
1
330
0
100
AcDbSymbolTable
 70
     1
  0
BLOCK_RECORD
  5
1F
330
1
100
AcDbSymbolTableRecord
100
AcDbBlockTableRecord
  2
*Model_Space
340
22
  0
BLOCK_RECORD
  5
1B
330
1
100
AcDbSymbolTableRecord
100
AcDbBlockTableRecord
  2
*Paper_Space
340
1E
  0
BLOCK_RECORD
  5
23
330
1
100
AcDbSymbolTableRecord
100
AcDbBlockTableRecord
  2
*Paper_Space0
340
26
  0
ENDTAB
  0
ENDSEC
  0
SECTION
  2
BLOCKS
  0
BLOCK
  5
20
330
1F
100
AcDbEntity
  8
0
100
AcDbBlockBegin
  2
*Model_Space
 70
     0
 10
0.0
 20
0.0
 30
0.0
  3
*Model_Space
  1

  0
ENDBLK
  5
21
330
1F
100
AcDbEntity
  8
0
100
AcDbBlockEnd
  0
BLOCK
  5
1C
330
1B
100
AcDbEntity
 67
     1
  8
0
100
AcDbBlockBegin
  2
*Paper_Space
 70
     0
 10
0.0
 20
0.0
 30
0.0
  3
*Paper_Space
  1

  0
ENDBLK
  5
1D
330
1B
100
AcDbEntity
 67
     1
  8
0
100
AcDbBlockEnd
  0
BLOCK
  5
24
330
23
100
AcDbEntity
  8
0
100
AcDbBlockBegin
  2
*Paper_Space0
 70
     0
 10
0.0
 20
0.0
 30
0.0
  3
*Paper_Space0
  1

  0
ENDBLK
  5
25
330
23
100
AcDbEntity
  8
0
100
AcDbBlockEnd
  0
ENDSEC
  0
SECTION
  2
ENTITIES
  0
ARC
  5
73
330
1F
100
AcDbEntity
  8
0
  6
Continuous
 62
     7
370
    25
100
AcDbCircle
 10
32.7591628914
 20
820.3583259849
 30
0.0
 40
4.000000000000006
100
AcDbArc
 50
221.4096221093
 51
138.5903778907
  0
LINE
  5
74
330
1F
100
AcDbEntity
  8
0
  6
Continuous
 62
     7
370
    25
100
AcDbLine
 10
29.7591628914
 20
817.7125746739
 30
0.0
 11
29.7591628914
 21
823.004077296
 31
0.0
  0
LINE
  5
75
330
1F
100
AcDbEntity
  8
0
  6
Continuous
 62
     7
370
    25
100
AcDbLine
 10
32.2591628914
 20
835.3332631705
 30
0.0
 11
32.2591628914
 21
825.3332631705
 31
0.0
  0
LINE
  5
76
330
1F
100
AcDbEntity
  8
0
  6
Continuous
 62
     7
370
    25
100
AcDbLine
 10
33.2591628914
 20
835.3332631705
 30
0.0
 11
32.2591628914
 21
835.3332631705
 31
0.0
  0
LINE
  5
77
330
1F
100
AcDbEntity
  8
0
  6
Continuous
 62
     7
370
    25
100
AcDbLine
 10
33.2591628914
 20
825.3332631705
 30
0.0
 11
33.2591628914
 21
835.3332631705
 31
0.0
  0
ARC
  5
78
330
1F
100
AcDbEntity
  8
0
  6
Continuous
 62
     7
370
    25
100
AcDbCircle
 10
32.7591628914
 20
820.3583259849
 30
0.0
 40
5.000000000000022
100
AcDbArc
 50
5.7391704773
 51
84.2608295227
  0
LINE
  5
79
330
1F
100
AcDbEntity
  8
0
  6
Continuous
 62
     7
370
    25
100
AcDbLine
 10
47.7341000769
 20
820.8583259849
 30
0.0
 11
37.7341000769
 21
820.8583259849
 31
0.0
  0
LINE
  5
7A
330
1F
100
AcDbEntity
  8
0
  6
Continuous
 62
     7
370
    25
100
AcDbLine
 10
47.7341000769
 20
819.8583259849
 30
0.0
 11
47.7341000769
 21
820.8583259849
 31
0.0
  0
LINE
  5
7B
330
1F
100
AcDbEntity
  8
0
  6
Continuous
 62
     7
370
    25
100
AcDbLine
 10
37.7341000769
 20
819.8583259849
 30
0.0
 11
47.7341000769
 21
819.8583259849
 31
0.0
  0
ARC
  5
7C
330
1F
100
AcDbEntity
  8
0
  6
Continuous
 62
     7
370
    25
100
AcDbCircle
 10
32.7591628914
 20
820.3583259849
 30
0.0
 40
5.000000000000001
100
AcDbArc
 50
275.7391704773
 51
354.2608295227
  0
LINE
  5
7D
330
1F
100
AcDbEntity
  8
0
  6
Continuous
 62
     7
370
    25
100
AcDbLine
 10
33.2591628914
 20
805.3833887994
 30
0.0
 11
33.2591628914
 21
815.3833887994
 31
0.0
  0
LINE
  5
7E
330
1F
100
AcDbEntity
  8
0
  6
Continuous
 62
     7
370
    25
100
AcDbLine
 10
32.2591628914
 20
805.3833887994
 30
0.0
 11
33.2591628914
 21
805.3833887994
 31
0.0
  0
LINE
  5
7F
330
1F
100
AcDbEntity
  8
0
  6
Continuous
 62
     7
370
    25
100
AcDbLine
 10
32.2591628914
 20
815.3833887994
 30
0.0
 11
32.2591628914
 21
805.3833887994
 31
0.0
  0
ARC
  5
80
330
1F
100
AcDbEntity
  8
0
  6
Continuous
 62
     7
370
    25
100
AcDbCircle
 10
32.7591628914
 20
820.3583259849
 30
0.0
 40
4.999999999999993
100
AcDbArc
 50
185.7391704773
 51
264.2608295227
  0
LINE
  5
81
330
1F
100
AcDbEntity
  8
0
  6
Continuous
 62
     7
370
    25
100
AcDbLine
 10
17.7842257058
 20
819.8583259849
 30
0.0
 11
27.7842257058
 21
819.8583259849
 31
0.0
  0
LINE
  5
82
330
1F
100
AcDbEntity
  8
0
  6
Continuous
 62
     7
370
    25
100
AcDbLine
 10
17.7842257058
 20
820.8583259849
 30
0.0
 11
17.7842257058
 21
819.8583259849
 31
0.0
  0
LINE
  5
83
330
1F
100
AcDbEntity
  8
0
  6
Continuous
 62
     7
370
    25
100
AcDbLine
 10
27.7842257058
 20
820.8583259849
 30
0.0
 11
17.7842257058
 21
820.8583259849
 31
0.0
  0
ARC
  5
84
330
1F
100
AcDbEntity
  8
0
  6
Continuous
 62
     7
370
    25
100
AcDbCircle
 10
32.7591628914
 20
820.3583259849
 30
0.0
 40
5.000000000000022
100
AcDbArc
 50
95.7391704773
 51
174.2608295227
  0
ARC
  5
85
330
1F
100
AcDbEntity
  8
0
  6
Continuous
 62
     7
370
    25
100
AcDbCircle
 10
30.7350283193
 20
799.0615825428
 30
0.0
 40
4.000000000000006
100
AcDbArc
 50
221.4096221093
 51
138.5903778907
  0
LINE
  5
86
330
1F
100
AcDbEntity
  8
0
  6
Continuous
 62
     7
370
    25
100
AcDbLine
 10
27.7350283193
 20
796.4158312318
 30
0.0
 11
27.7350283193
 21
801.7073338539
 31
0.0
  0
LINE
  5
87
330
1F
100
AcDbEntity
  8
0
  6
Continuous
 62
     7
370
    25
100
AcDbLine
 10
30.2350283193
 20
814.0365197284
 30
0.0
 11
30.2350283193
 21
804.0365197284
 31
0.0
  0
LINE
  5
88
330
1F
100
AcDbEntity
  8
0
  6
Continuous
 62
     7
370
    25
100
AcDbLine
 10
31.2350283193
 20
814.0365197284
 30
0.0
 11
30.2350283193
 21
814.0365197284
 31
0.0
  0
LINE
  5
89
330
1F
100
AcDbEntity
  8
0
  6
Continuous
 62
     7
370
    25
100
AcDbLine
 10
31.2350283193
 20
804.0365197284
 30
0.0
 11
31.2350283193
 21
814.0365197284
 31
0.0
  0
ARC
  5
8A
330
1F
100
AcDbEntity
  8
0
  6
Continuous
 62
     7
370
    25
100
AcDbCircle
 10
30.7350283193
 20
799.0615825428
 30
0.0
 40
5.000000000000022
100
AcDbArc
 50
5.7391704773
 51
84.2608295227
  0
LINE
  5
8B
330
1F
100
AcDbEntity
  8
0
  6
Continuous
 62
     7
370
    25
100
AcDbLine
 10
45.7099655048
 20
799.5615825428
 30
0.0
 11
35.7099655048
 21
799.5615825428
 31
0.0
  0
LINE
  5
8C
330
1F
100
AcDbEntity
  8
0
  6
Continuous
 62
     7
370
    25
100
AcDbLine
 10
45.7099655048
 20
798.5615825428
 30
0.0
 11
45.7099655048
 21
799.5615825428
 31
0.0
  0
LINE
  5
8D
330
1F
100
AcDbEntity
  8
0
  6
Continuous
 62
     7
370
    25
100
AcDbLine
 10
35.7099655048
 20
798.5615825428
 30
0.0
 11
45.7099655048
 21
798.5615825428
 31
0.0
  0
ARC
  5
8E
330
1F
100
AcDbEntity
  8
0
  6
Continuous
 62
     7
370
    25
100
AcDbCircle
 10
30.7350283193
 20
799.0615825428
 30
0.0
 40
5.000000000000019
100
AcDbArc
 50
275.7391704773
 51
354.2608295227
  0
LINE
  5
8F
330
1F
100
AcDbEntity
  8
0
  6
Continuous
 62
     7
370
    25
100
AcDbLine
 10
31.2350283193
 20
784.0866453573
 30
0.0
 11
31.2350283193
 21
794.0866453573
 31
0.0
  0
LINE
  5
90
330
1F
100
AcDbEntity
  8
0
  6
Continuous
 62
     7
370
    25
100
AcDbLine
 10
30.2350283193
 20
784.0866453573
 30
0.0
 11
31.2350283193
 21
784.0866453573
 31
0.0
  0
LINE
  5
91
330
1F
100
AcDbEntity
  8
0
  6
Continuous
 62
     7
370
    25
100
AcDbLine
 10
30.2350283193
 20
794.0866453573
 30
0.0
 11
30.2350283193
 21
784.0866453573
 31
0.0
  0
ARC
  5
92
330
1F
100
AcDbEntity
  8
0
  6
Continuous
 62
     7
370
    25
100
AcDbCircle
 10
30.7350283193
 20
799.0615825428
 30
0.0
 40
5.000000000000026
100
AcDbArc
 50
185.7391704773
 51
264.2608295227
  0
LINE
  5
93
330
1F
100
AcDbEntity
  8
0
  6
Continuous
 62
     7
370
    25
100
AcDbLine
 10
15.7600911338
 20
798.5615825428
 30
0.0
 11
25.7600911338
 21
798.5615825428
 31
0.0
  0
LINE
  5
94
330
1F
100
AcDbEntity
  8
0
  6
Continuous
 62
     7
370
    25
100
AcDbLine
 10
15.7600911338
 20
799.5615825428
 30
0.0
 11
15.7600911338
 21
798.5615825428
 31
0.0
  0
LINE
  5
95
330
1F
100
AcDbEntity
  8
0
  6
Continuous
 62
     7
370
    25
100
AcDbLine
 10
25.7600911338
 20
799.5615825428
 30
0.0
 11
15.7600911338
 21
799.5615825428
 31
0.0
  0
ARC
  5
96
330
1F
100
AcDbEntity
  8
0
  6
Continuous
 62
     7
370
    25
100
AcDbCircle
 10
30.7350283193
 20
799.0615825428
 30
0.0
 40
5.000000000000022
100
AcDbArc
 50
95.7391704773
 51
174.2608295227
  0
ARC
  5
97
330
1F
100
AcDbEntity
  8
0
  6
Continuous
 62
     7
370
    25
100
AcDbCircle
 10
51.9477220673
 20
797.0288727752
 30
0.0
 40
4.000000000000001
100
AcDbArc
 50
221.4096221093
 51
138.5903778907
  0
LINE
  5
98
330
1F
100
AcDbEntity
  8
0
  6
Continuous
 62
     7
370
    25
100
AcDbLine
 10
48.9477220673
 20
794.3831214642
 30
0.0
 11
48.9477220673
 21
799.6746240863
 31
0.0
  0
LINE
  5
99
330
1F
100
AcDbEntity
  8
0
  6
Continuous
 62
     7
370
    25
100
AcDbLine
 10
51.4477220673
 20
812.0038099608
 30
0.0
 11
51.4477220673
 21
802.0038099608
 31
0.0
  0
LINE
  5
9A
330
1F
100
AcDbEntity
  8
0
  6
Continuous
 62
     7
370
    25
100
AcDbLine
 10
52.4477220673
 20
812.0038099608
 30
0.0
 11
51.4477220673
 21
812.0038099608
 31
0.0
  0
LINE
  5
9B
330
1F
100
AcDbEntity
  8
0
  6
Continuous
 62
     7
370
    25
100
AcDbLine
 10
52.4477220673
 20
802.0038099608
 30
0.0
 11
52.4477220673
 21
812.0038099608
 31
0.0
  0
ARC
  5
9C
330
1F
100
AcDbEntity
  8
0
  6
Continuous
 62
     7
370
    25
100
AcDbCircle
 10
51.9477220673
 20
797.0288727752
 30
0.0
 40
5.000000000000023
100
AcDbArc
 50
5.7391704773
 51
84.2608295227
  0
LINE
  5
9D
330
1F
100
AcDbEntity
  8
0
  6
Continuous
 62
     7
370
    25
100
AcDbLine
 10
66.9226592529
 20
797.5288727752
 30
0.0
 11
56.9226592529
 21
797.5288727752
 31
0.0
  0
LINE
  5
9E
330
1F
100
AcDbEntity
  8
0
  6
Continuous
 62
     7
370
    25
100
AcDbLine
 10
66.9226592529
 20
796.5288727752
 30
0.0
 11
66.9226592529
 21
797.5288727752
 31
0.0
  0
LINE
  5
9F
330
1F
100
AcDbEntity
  8
0
  6
Continuous
 62
     7
370
    25
100
AcDbLine
 10
56.9226592529
 20
796.5288727752
 30
0.0
 11
66.9226592529
 21
796.5288727752
 31
0.0
  0
ARC
  5
A0
330
1F
100
AcDbEntity
  8
0
  6
Continuous
 62
     7
370
    25
100
AcDbCircle
 10
51.9477220673
 20
797.0288727752
 30
0.0
 40
5.00000000000002
100
AcDbArc
 50
275.7391704773
 51
354.2608295227
  0
LINE
  5
A1
330
1F
100
AcDbEntity
  8
0
  6
Continuous
 62
     7
370
    25
100
AcDbLine
 10
52.4477220673
 20
782.0539355897
 30
0.0
 11
52.4477220673
 21
792.0539355897
 31
0.0
  0
LINE
  5
A2
330
1F
100
AcDbEntity
  8
0
  6
Continuous
 62
     7
370
    25
100
AcDbLine
 10
51.4477220673
 20
782.0539355897
 30
0.0
 11
52.4477220673
 21
782.0539355897
 31
0.0
  0
LINE
  5
A3
330
1F
100
AcDbEntity
  8
0
  6
Continuous
 62
     7
370
    25
100
AcDbLine
 10
51.4477220673
 20
792.0539355897
 30
0.0
 11
51.4477220673
 21
782.0539355897
 31
0.0
  0
ARC
  5
A4
330
1F
100
AcDbEntity
  8
0
  6
Continuous
 62
     7
370
    25
100
AcDbCircle
 10
51.9477220673
 20
797.0288727752
 30
0.0
 40
5.000000000000025
100
AcDbArc
 50
185.7391704773
 51
264.2608295227
  0
LINE
  5
A5
330
1F
100
AcDbEntity
  8
0
  6
Continuous
 62
     7
370
    25
100
AcDbLine
 10
36.9727848818
 20
796.5288727752
 30
0.0
 11
46.9727848818
 21
796.5288727752
 31
0.0
  0
LINE
  5
A6
330
1F
100
AcDbEntity
  8
0
  6
Continuous
 62
     7
370
    25
100
AcDbLine
 10
36.9727848818
 20
797.5288727752
 30
0.0
 11
36.9727848818
 21
796.5288727752
 31
0.0
  0
LINE
  5
A7
330
1F
100
AcDbEntity
  8
0
  6
Continuous
 62
     7
370
    25
100
AcDbLine
 10
46.9727848818
 20
797.5288727752
 30
0.0
 11
36.9727848818
 21
797.5288727752
 31
0.0
  0
ARC
  5
A8
330
1F
100
AcDbEntity
  8
0
  6
Continuous
 62
     7
370
    25
100
AcDbCircle
 10
51.9477220673
 20
797.0288727752
 30
0.0
 40
5.000000000000022
100
AcDbArc
 50
95.7391704773
 51
174.2608295227
  0
ARC
  5
A9
330
1F
100
AcDbEntity
  8
0
  6
Continuous
 62
     7
370
    25
100
AcDbCircle
 10
53.9322855785
 20
818.0527402543
 30
0.0
 40
4.000000000000001
100
AcDbArc
 50
221.4096221093
 51
138.5903778907
  0
LINE
  5
AA
330
1F
100
AcDbEntity
  8
0
  6
Continuous
 62
     7
370
    25
100
AcDbLine
 10
50.9322855785
 20
815.4069889432
 30
0.0
 11
50.9322855785
 21
820.6984915654
 31
0.0
  0
LINE
  5
AB
330
1F
100
AcDbEntity
  8
0
  6
Continuous
 62
     7
370
    25
100
AcDbLine
 10
53.4322855785
 20
833.0276774398
 30
0.0
 11
53.4322855785
 21
823.0276774398
 31
0.0
  0
LINE
  5
AC
330
1F
100
AcDbEntity
  8
0
  6
Continuous
 62
     7
370
    25
100
AcDbLine
 10
54.4322855785
 20
833.0276774398
 30
0.0
 11
53.4322855785
 21
833.0276774398
 31
0.0
  0
LINE
  5
AD
330
1F
100
AcDbEntity
  8
0
  6
Continuous
 62
     7
370
    25
100
AcDbLine
 10
54.4322855785
 20
823.0276774398
 30
0.0
 11
54.4322855785
 21
833.0276774398
 31
0.0
  0
ARC
  5
AE
330
1F
100
AcDbEntity
  8
0
  6
Continuous
 62
     7
370
    25
100
AcDbCircle
 10
53.9322855785
 20
818.0527402543
 30
0.0
 40
4.999999999999989
100
AcDbArc
 50
5.7391704773
 51
84.2608295227
  0
LINE
  5
AF
330
1F
100
AcDbEntity
  8
0
  6
Continuous
 62
     7
370
    25
100
AcDbLine
 10
68.907222764
 20
818.5527402543
 30
0.0
 11
58.907222764
 21
818.5527402543
 31
0.0
  0
LINE
  5
B0
330
1F
100
AcDbEntity
  8
0
  6
Continuous
 62
     7
370
    25
100
AcDbLine
 10
68.907222764
 20
817.5527402543
 30
0.0
 11
68.907222764
 21
818.5527402543
 31
0.0
  0
LINE
  5
B1
330
1F
100
AcDbEntity
  8
0
  6
Continuous
 62
     7
370
    25
100
AcDbLine
 10
58.907222764
 20
817.5527402543
 30
0.0
 11
68.907222764
 21
817.5527402543
 31
0.0
  0
ARC
  5
B2
330
1F
100
AcDbEntity
  8
0
  6
Continuous
 62
     7
370
    25
100
AcDbCircle
 10
53.9322855785
 20
818.0527402543
 30
0.0
 40
5.000000000000019
100
AcDbArc
 50
275.7391704773
 51
354.2608295227
  0
LINE
  5
B3
330
1F
100
AcDbEntity
  8
0
  6
Continuous
 62
     7
370
    25
100
AcDbLine
 10
54.4322855785
 20
803.0778030688
 30
0.0
 11
54.4322855785
 21
813.0778030688
 31
0.0
  0
LINE
  5
B4
330
1F
100
AcDbEntity
  8
0
  6
Continuous
 62
     7
370
    25
100
AcDbLine
 10
53.4322855785
 20
803.0778030688
 30
0.0
 11
54.4322855785
 21
803.0778030688
 31
0.0
  0
LINE
  5
B5
330
1F
100
AcDbEntity
  8
0
  6
Continuous
 62
     7
370
    25
100
AcDbLine
 10
53.4322855785
 20
813.0778030688
 30
0.0
 11
53.4322855785
 21
803.0778030688
 31
0.0
  0
ARC
  5
B6
330
1F
100
AcDbEntity
  8
0
  6
Continuous
 62
     7
370
    25
100
AcDbCircle
 10
53.9322855785
 20
818.0527402543
 30
0.0
 40
5.000000000000026
100
AcDbArc
 50
185.7391704773
 51
264.2608295227
  0
LINE
  5
B7
330
1F
100
AcDbEntity
  8
0
  6
Continuous
 62
     7
370
    25
100
AcDbLine
 10
38.957348393
 20
817.5527402543
 30
0.0
 11
48.957348393
 21
817.5527402543
 31
0.0
  0
LINE
  5
B8
330
1F
100
AcDbEntity
  8
0
  6
Continuous
 62
     7
370
    25
100
AcDbLine
 10
38.957348393
 20
818.5527402543
 30
0.0
 11
38.957348393
 21
817.5527402543
 31
0.0
  0
LINE
  5
B9
330
1F
100
AcDbEntity
  8
0
  6
Continuous
 62
     7
370
    25
100
AcDbLine
 10
48.957348393
 20
818.5527402543
 30
0.0
 11
38.957348393
 21
818.5527402543
 31
0.0
  0
ARC
  5
BA
330
1F
100
AcDbEntity
  8
0
  6
Continuous
 62
     7
370
    25
100
AcDbCircle
 10
53.9322855785
 20
818.0527402543
 30
0.0
 40
4.999999999999994
100
AcDbArc
 50
95.7391704773
 51
174.2608295227
  0
LINE
  5
BB
330
1F
100
AcDbEntity
  8
0
  6
Continuous
 62
     7
370
    25
100
AcDbLine
 10
37.6019808759
 20
773.4086660368
 30
0.0
 11
37.6019808759
 21
768.1171634146
 31
0.0
  0
ARC
  5
BC
330
1F
100
AcDbEntity
  8
0
  6
Continuous
 62
     7
370
    25
100
AcDbCircle
 10
40.6019808759
 20
770.7629147257
 30
0.0
 40
4.000000000000012
100
AcDbArc
 50
221.4096221093
 51
138.5903778907
  0
LINE
  5
BD
330
1F
100
AcDbEntity
  8
0
  6
Continuous
 62
     7
370
    25
100
AcDbLine
 10
64.6019808759
 20
764.7629147257
 30
0.0
 11
46.6019808759
 21
764.7629147257
 31
0.0
  0
LINE
  5
BE
330
1F
100
AcDbEntity
  8
0
  6
Continuous
 62
     7
370
    25
100
AcDbLine
 10
46.6019808759
 20
764.7629147257
 30
0.0
 11
46.6019808759
 21
746.7629147257
 31
0.0
  0
LINE
  5
BF
330
1F
100
AcDbEntity
  8
0
  6
Continuous
 62
     7
370
    25
100
AcDbLine
 10
46.6019808759
 20
746.7629147257
 30
0.0
 11
34.6019808759
 21
746.7629147257
 31
0.0
  0
LINE
  5
C0
330
1F
100
AcDbEntity
  8
0
  6
Continuous
 62
     7
370
    25
100
AcDbLine
 10
34.6019808759
 20
746.7629147257
 30
0.0
 11
34.6019808759
 21
764.7629147257
 31
0.0
  0
LINE
  5
C1
330
1F
100
AcDbEntity
  8
0
  6
Continuous
 62
     7
370
    25
100
AcDbLine
 10
34.6019808759
 20
764.7629147257
 30
0.0
 11
16.6019808759
 21
764.7629147257
 31
0.0
  0
LINE
  5
C2
330
1F
100
AcDbEntity
  8
0
  6
Continuous
 62
     7
370
    25
100
AcDbLine
 10
16.6019808759
 20
764.7629147257
 30
0.0
 11
16.6019808759
 21
776.7629147257
 31
0.0
  0
LINE
  5
C3
330
1F
100
AcDbEntity
  8
0
  6
Continuous
 62
     7
370
    25
100
AcDbLine
 10
16.6019808759
 20
776.7629147257
 30
0.0
 11
34.6019808759
 21
776.7629147257
 31
0.0
  0
LINE
  5
C4
330
1F
100
AcDbEntity
  8
0
  6
Continuous
 62
     7
370
    25
100
AcDbLine
 10
34.6019808759
 20
776.7629147257
 30
0.0
 11
34.6019808759
 21
794.7629147257
 31
0.0
  0
LINE
  5
C5
330
1F
100
AcDbEntity
  8
0
  6
Continuous
 62
     7
370
    25
100
AcDbLine
 10
34.6019808759
 20
794.7629147257
 30
0.0
 11
46.6019808759
 21
794.7629147257
 31
0.0
  0
LINE
  5
C6
330
1F
100
AcDbEntity
  8
0
  6
Continuous
 62
     7
370
    25
100
AcDbLine
 10
46.6019808759
 20
794.7629147257
 30
0.0
 11
46.6019808759
 21
776.7629147257
 31
0.0
  0
LINE
  5
C7
330
1F
100
AcDbEntity
  8
0
  6
Continuous
 62
     7
370
    25
100
AcDbLine
 10
46.6019808759
 20
776.7629147257
 30
0.0
 11
64.6019808759
 21
776.7629147257
 31
0.0
  0
LINE
  5
C8
330
1F
100
AcDbEntity
  8
0
  6
Continuous
 62
     7
370
    25
100
AcDbLine
 10
64.6019808759
 20
776.7629147257
 30
0.0
 11
64.6019808759
 21
764.7629147257
 31
0.0
  0
LINE
  5
C9
330
1F
100
AcDbEntity
  8
0
  6
Continuous
 62
     7
370
    25
100
AcDbLine
 10
69.0871802337
 20
759.9779166604
 30
0.0
 11
69.0871802337
 21
754.6864140382
 31
0.0
  0
ARC
  5
CA
330
1F
100
AcDbEntity
  8
0
  6
Continuous
 62
     7
370
    25
100
AcDbCircle
 10
72.0871802337
 20
757.3321653493
 30
0.0
 40
4.000000000000017
100
AcDbArc
 50
221.4096221093
 51
138.5903778907
  0
LINE
  5
CB
330
1F
100
AcDbEntity
  8
0
  6
Continuous
 62
     7
370
    25
100
AcDbLine
 10
96.0871802337
 20
751.3321653493
 30
0.0
 11
78.0871802337
 21
751.3321653493
 31
0.0
  0
LINE
  5
CC
330
1F
100
AcDbEntity
  8
0
  6
Continuous
 62
     7
370
    25
100
AcDbLine
 10
78.0871802337
 20
751.3321653493
 30
0.0
 11
78.0871802337
 21
733.3321653493
 31
0.0
  0
LINE
  5
CD
330
1F
100
AcDbEntity
  8
0
  6
Continuous
 62
     7
370
    25
100
AcDbLine
 10
78.0871802337
 20
733.3321653493
 30
0.0
 11
66.0871802337
 21
733.3321653493
 31
0.0
  0
LINE
  5
CE
330
1F
100
AcDbEntity
  8
0
  6
Continuous
 62
     7
370
    25
100
AcDbLine
 10
66.0871802337
 20
733.3321653493
 30
0.0
 11
66.0871802337
 21
751.3321653493
 31
0.0
  0
LINE
  5
CF
330
1F
100
AcDbEntity
  8
0
  6
Continuous
 62
     7
370
    25
100
AcDbLine
 10
66.0871802337
 20
751.3321653493
 30
0.0
 11
48.0871802337
 21
751.3321653493
 31
0.0
  0
LINE
  5
D0
330
1F
100
AcDbEntity
  8
0
  6
Continuous
 62
     7
370
    25
100
AcDbLine
 10
48.0871802337
 20
751.3321653493
 30
0.0
 11
48.0871802337
 21
763.3321653493
 31
0.0
  0
LINE
  5
D1
330
1F
100
AcDbEntity
  8
0
  6
Continuous
 62
     7
370
    25
100
AcDbLine
 10
48.0871802337
 20
763.3321653493
 30
0.0
 11
66.0871802337
 21
763.3321653493
 31
0.0
  0
LINE
  5
D2
330
1F
100
AcDbEntity
  8
0
  6
Continuous
 62
     7
370
    25
100
AcDbLine
 10
66.0871802337
 20
763.3321653493
 30
0.0
 11
66.0871802337
 21
781.3321653493
 31
0.0
  0
LINE
  5
D3
330
1F
100
AcDbEntity
  8
0
  6
Continuous
 62
     7
370
    25
100
AcDbLine
 10
66.0871802337
 20
781.3321653493
 30
0.0
 11
78.0871802337
 21
781.3321653493
 31
0.0
  0
LINE
  5
D4
330
1F
100
AcDbEntity
  8
0
  6
Continuous
 62
     7
370
    25
100
AcDbLine
 10
78.0871802337
 20
781.3321653493
 30
0.0
 11
78.0871802337
 21
763.3321653493
 31
0.0
  0
LINE
  5
D5
330
1F
100
AcDbEntity
  8
0
  6
Continuous
 62
     7
370
    25
100
AcDbLine
 10
78.0871802337
 20
763.3321653493
 30
0.0
 11
96.0871802337
 21
763.3321653493
 31
0.0
  0
LINE
  5
D6
330
1F
100
AcDbEntity
  8
0
  6
Continuous
 62
     7
370
    25
100
AcDbLine
 10
96.0871802337
 20
763.3321653493
 30
0.0
 11
96.0871802337
 21
751.3321653493
 31
0.0
  0
LINE
  5
D7
330
1F
100
AcDbEntity
  8
0
  6
Continuous
 62
     7
370
    25
100
AcDbLine
 10
23.9645354569
 20
741.8560657955
 30
0.0
 11
23.9645354569
 21
736.5645631734
 31
0.0
  0
ARC
  5
D8
330
1F
100
AcDbEntity
  8
0
  6
Continuous
 62
     7
370
    25
100
AcDbCircle
 10
26.9645354569
 20
739.2103144845
 30
0.0
 40
4.000000000000006
100
AcDbArc
 50
221.4096221093
 51
138.5903778907
  0
LINE
  5
D9
330
1F
100
AcDbEntity
  8
0
  6
Continuous
 62
     7
370
    25
100
AcDbLine
 10
50.9645354569
 20
733.2103144845
 30
0.0
 11
32.9645354569
 21
733.2103144845
 31
0.0
  0
LINE
  5
DA
330
1F
100
AcDbEntity
  8
0
  6
Continuous
 62
     7
370
    25
100
AcDbLine
 10
32.9645354569
 20
733.2103144845
 30
0.0
 11
32.9645354569
 21
715.2103144845
 31
0.0
  0
LINE
  5
DB
330
1F
100
AcDbEntity
  8
0
  6
Continuous
 62
     7
370
    25
100
AcDbLine
 10
32.9645354569
 20
715.2103144845
 30
0.0
 11
20.9645354569
 21
715.2103144845
 31
0.0
  0
LINE
  5
DC
330
1F
100
AcDbEntity
  8
0
  6
Continuous
 62
     7
370
    25
100
AcDbLine
 10
20.9645354569
 20
715.2103144845
 30
0.0
 11
20.9645354569
 21
733.2103144845
 31
0.0
  0
LINE
  5
DD
330
1F
100
AcDbEntity
  8
0
  6
Continuous
 62
     7
370
    25
100
AcDbLine
 10
20.9645354569
 20
733.2103144845
 30
0.0
 11
2.9645354569
 21
733.2103144845
 31
0.0
  0
LINE
  5
DE
330
1F
100
AcDbEntity
  8
0
  6
Continuous
 62
     7
370
    25
100
AcDbLine
 10
2.9645354569
 20
733.2103144845
 30
0.0
 11
2.9645354569
 21
745.2103144845
 31
0.0
  0
LINE
  5
DF
330
1F
100
AcDbEntity
  8
0
  6
Continuous
 62
     7
370
    25
100
AcDbLine
 10
2.9645354569
 20
745.2103144845
 30
0.0
 11
20.9645354569
 21
745.2103144845
 31
0.0
  0
LINE
  5
E0
330
1F
100
AcDbEntity
  8
0
  6
Continuous
 62
     7
370
    25
100
AcDbLine
 10
20.9645354569
 20
745.2103144845
 30
0.0
 11
20.9645354569
 21
763.2103144845
 31
0.0
  0
LINE
  5
E1
330
1F
100
AcDbEntity
  8
0
  6
Continuous
 62
     7
370
    25
100
AcDbLine
 10
20.9645354569
 20
763.2103144845
 30
0.0
 11
32.9645354569
 21
763.2103144845
 31
0.0
  0
LINE
  5
E2
330
1F
100
AcDbEntity
  8
0
  6
Continuous
 62
     7
370
    25
100
AcDbLine
 10
32.9645354569
 20
763.2103144845
 30
0.0
 11
32.9645354569
 21
745.2103144845
 31
0.0
  0
LINE
  5
E3
330
1F
100
AcDbEntity
  8
0
  6
Continuous
 62
     7
370
    25
100
AcDbLine
 10
32.9645354569
 20
745.2103144845
 30
0.0
 11
50.9645354569
 21
745.2103144845
 31
0.0
  0
LINE
  5
E4
330
1F
100
AcDbEntity
  8
0
  6
Continuous
 62
     7
370
    25
100
AcDbLine
 10
50.9645354569
 20
745.2103144845
 30
0.0
 11
50.9645354569
 21
733.2103144845
 31
0.0
  0
LINE
  5
E5
330
1F
100
AcDbEntity
  8
0
  6
Continuous
 62
     7
370
    25
100
AcDbLine
 10
55.4380519949
 20
728.2428341439
 30
0.0
 11
55.4380519949
 21
722.9513315218
 31
0.0
  0
ARC
  5
E6
330
1F
100
AcDbEntity
  8
0
  6
Continuous
 62
     7
370
    25
100
AcDbCircle
 10
58.4380519949
 20
725.5970828329
 30
0.0
 40
4.000000000000006
100
AcDbArc
 50
221.4096221093
 51
138.5903778907
  0
LINE
  5
E7
330
1F
100
AcDbEntity
  8
0
  6
Continuous
 62
     7
370
    25
100
AcDbLine
 10
82.4380519949
 20
719.5970828329
 30
0.0
 11
64.4380519949
 21
719.5970828329
 31
0.0
  0
LINE
  5
E8
330
1F
100
AcDbEntity
  8
0
  6
Continuous
 62
     7
370
    25
100
AcDbLine
 10
64.4380519949
 20
719.5970828329
 30
0.0
 11
64.4380519949
 21
701.5970828329
 31
0.0
  0
LINE
  5
E9
330
1F
100
AcDbEntity
  8
0
  6
Continuous
 62
     7
370
    25
100
AcDbLine
 10
64.4380519949
 20
701.5970828329
 30
0.0
 11
52.4380519949
 21
701.5970828329
 31
0.0
  0
LINE
  5
EA
330
1F
100
AcDbEntity
  8
0
  6
Continuous
 62
     7
370
    25
100
AcDbLine
 10
52.4380519949
 20
701.5970828329
 30
0.0
 11
52.4380519949
 21
719.5970828329
 31
0.0
  0
LINE
  5
EB
330
1F
100
AcDbEntity
  8
0
  6
Continuous
 62
     7
370
    25
100
AcDbLine
 10
52.4380519949
 20
719.5970828329
 30
0.0
 11
34.4380519949
 21
719.5970828329
 31
0.0
  0
LINE
  5
EC
330
1F
100
AcDbEntity
  8
0
  6
Continuous
 62
     7
370
    25
100
AcDbLine
 10
34.4380519949
 20
719.5970828329
 30
0.0
 11
34.4380519949
 21
731.5970828329
 31
0.0
  0
LINE
  5
ED
330
1F
100
AcDbEntity
  8
0
  6
Continuous
 62
     7
370
    25
100
AcDbLine
 10
34.4380519949
 20
731.5970828329
 30
0.0
 11
52.4380519949
 21
731.5970828329
 31
0.0
  0
LINE
  5
EE
330
1F
100
AcDbEntity
  8
0
  6
Continuous
 62
     7
370
    25
100
AcDbLine
 10
52.4380519949
 20
731.5970828329
 30
0.0
 11
52.4380519949
 21
749.5970828329
 31
0.0
  0
LINE
  5
EF
330
1F
100
AcDbEntity
  8
0
  6
Continuous
 62
     7
370
    25
100
AcDbLine
 10
52.4380519949
 20
749.5970828329
 30
0.0
 11
64.4380519949
 21
749.5970828329
 31
0.0
  0
LINE
  5
F0
330
1F
100
AcDbEntity
  8
0
  6
Continuous
 62
     7
370
    25
100
AcDbLine
 10
64.4380519949
 20
749.5970828329
 30
0.0
 11
64.4380519949
 21
731.5970828329
 31
0.0
  0
LINE
  5
F1
330
1F
100
AcDbEntity
  8
0
  6
Continuous
 62
     7
370
    25
100
AcDbLine
 10
64.4380519949
 20
731.5970828329
 30
0.0
 11
82.4380519949
 21
731.5970828329
 31
0.0
  0
LINE
  5
F2
330
1F
100
AcDbEntity
  8
0
  6
Continuous
 62
     7
370
    25
100
AcDbLine
 10
82.4380519949
 20
731.5970828329
 30
0.0
 11
82.4380519949
 21
719.5970828329
 31
0.0
  0
SPLINE
  5
F3
330
1F
100
AcDbEntity
  8
0
  6
Continuous
 62
     7
370
    25
100
AcDbSpline
210
0.0
220
0.0
230
1.0
 70
     8
 71
     3
 72
    22
 73
    18
 74
     0
 42
0.00000001
 43
0.00000001
 40
0.0
 40
0.0
 40
0.0
 40
0.0
 40
0.125
 40
0.125
 40
0.25
 40
0.25
 40
0.375
 40
0.375
 40
0.5
 40
0.5
 40
0.625
 40
0.625
 40
0.75
 40
0.75
 40
0.875
 40
0.875
 40
1.0
 40
1.0
 40
1.0
 40
1.0
 10
107.1165421859727
 20
782.7769651393342
 30
0.0
 10
106.8242791083231
 20
783.133721090133
 30
0.0
 10
106.5070080536804
 20
783.4723983816344
 30
0.0
 10
105.8359297340034
 20
784.069499429873
 30
0.0
 10
105.4821306764997
 20
784.3275098066679
 30
0.0
 10
104.7641313703627
 20
784.7166096904796
 30
0.0
 10
104.4001577592101
 20
784.8471468990602
 30
0.0
 10
103.6975787891724
 20
784.9475584888092
 30
0.0
 10
103.3593638686107
 20
784.9170720472446
 30
0.0
 10
102.744036322412
 20
784.6897192343338
 30
0.0
 10
102.4672511812198
 20
784.492973862787
 30
0.0
 10
101.9987461939122
 20
783.959867144237
 30
0.0
 10
101.8070883805244
 20
783.6240338001408
 30
0.0
 10
101.5145731368764
 20
782.8615663874411
 30
0.0
 10
101.4135287919356
 20
782.4354992941567
 30
0.0
 10
101.2919049712001
 20
781.5455086092741
 30
0.0
 10
101.271062950965
 20
781.0819044245591
 30
0.0
 10
101.2809758084048
 20
780.6208249842832
 30
0.0
  0
SPLINE
  5
F4
330
1F
100
AcDbEntity
  8
0
  6
Continuous
 62
     7
370
    25
100
AcDbSpline
210
0.0
220
0.0
230
1.0
 70
     8
 71
     3
 72
    22
 73
    18
 74
     0
 42
0.00000001
 43
0.00000001
 40
0.0
 40
0.0
 40
0.0
 40
0.0
 40
0.125
 40
0.125
 40
0.25
 40
0.25
 40
0.375
 40
0.375
 40
0.5
 40
0.5
 40
0.625
 40
0.625
 40
0.75
 40
0.75
 40
0.875
 40
0.875
 40
1.0
 40
1.0
 40
1.0
 40
1.0
 10
100.8673492931938
 20
780.5247354921448
 30
0.0
 10
100.6729897947122
 20
780.9429661705243
 30
0.0
 10
100.4499120110806
 20
781.349905394909
 30
0.0
 10
99.94840984315542
 20
782.0951378073244
 30
0.0
 10
99.66989060512661
 20
782.4330285613738
 30
0.0
 10
99.07121377370125
 20
782.9884633232587
 30
0.0
 10
98.75113834651644
 20
783.2054160216792
 30
0.0
 10
98.09560353369955
 20
783.4773972814753
 30
0.0
 10
97.76043258708822
 20
783.5319792579651
 30
0.0
 10
97.10789634187219
 20
783.464794889778
 30
0.0
 10
96.79087833061263
 20
783.3430643013997
 30
0.0
 10
96.20451403931872
 20
782.9432185631574
 30
0.0
 10
95.93535915212308
 20
782.665599401106
 30
0.0
 10
95.462415877921
 20
781.9998318871925
 30
0.0
 10
95.25858744953045
 20
781.6122791818682
 30
0.0
 10
94.91945298177276
 20
780.7804958051848
 30
0.0
 10
94.78397207954322
 20
780.3366397981016
 30
0.0
 10
94.67890771236178
 20
779.8875807889096
 30
0.0
  0
SPLINE
  5
F5
330
1F
100
AcDbEntity
  8
0
  6
Continuous
 62
     7
370
    25
100
AcDbSpline
210
0.0
220
0.0
230
1.0
 70
     8
 71
     3
 72
    22
 73
    18
 74
     0
 42
0.00000001
 43
0.00000001
 40
0.0
 40
0.0
 40
0.0
 40
0.0
 40
0.125
 40
0.125
 40
0.25
 40
0.25
 40
0.375
 40
0.375
 40
0.5
 40
0.5
 40
0.625
 40
0.625
 40
0.75
 40
0.75
 40
0.875
 40
0.875
 40
1.0
 40
1.0
 40
1.0
 40
1.0
 10
94.25437954977446
 20
779.8973748562593
 30
0.0
 10
94.17013595255487
 20
780.3508012905518
 30
0.0
 10
94.05526823750255
 20
780.8004329597339
 30
0.0
 10
93.7548534469359
 20
781.6469710430808
 30
0.0
 10
93.56911441642947
 20
782.043511255633
 30
0.0
 10
93.1273771268136
 20
782.7303808867555
 30
0.0
 10
92.87131139984162
 20
783.0201171390777
 30
0.0
 10
92.30401040742322
 20
783.4465784860909
 30
0.0
 10
91.99294345801042
 20
783.5827992943138
 30
0.0
 10
91.3441997659244
 20
783.6800048117904
 30
0.0
 10
91.00686829215563
 20
783.6409377871424
 30
0.0
 10
90.33948812179436
 20
783.3994768074713
 30
0.0
 10
90.00974815223582
 20
783.197515660428
 30
0.0
 10
89.38609361276147
 20
782.6702806667216
 30
0.0
 10
89.09228839070552
 20
782.3455937111521
 30
0.0
 10
88.55695234178415
 20
781.6242816513104
 30
0.0
 10
88.3153453209111
 20
781.2280629271721
 30
0.0
 10
88.10190530969822
 20
780.8192403781352
 30
0.0
  0
SPLINE
  5
F6
330
1F
100
AcDbEntity
  8
0
  6
Continuous
 62
     7
370
    25
100
AcDbSpline
210
0.0
220
0.0
230
1.0
 70
     8
 71
     3
 72
    22
 73
    18
 74
     0
 42
0.00000001
 43
0.00000001
 40
0.0
 40
0.0
 40
0.0
 40
0.0
 40
0.125
 40
0.125
 40
0.25
 40
0.25
 40
0.375
 40
0.375
 40
0.5
 40
0.5
 40
0.625
 40
0.625
 40
0.75
 40
0.75
 40
0.875
 40
0.875
 40
1.0
 40
1.0
 40
1.0
 40
1.0
 10
87.69315016549534
 20
780.9343026077012
 30
0.0
 10
87.7243158045773
 20
781.3944343474544
 30
0.0
 10
87.72487571909494
 20
781.8585064500295
 30
0.0
 10
87.64442447202642
 20
782.7531591031822
 30
0.0
 10
87.56313631542945
 20
783.1834326943092
 30
0.0
 10
87.30609454612573
 20
783.9585786496162
 30
0.0
 10
87.1301280707361
 20
784.3028932615316
 30
0.0
 10
86.68670650645699
 20
784.8570385609138
 30
0.0
 10
86.41928903469851
 20
785.066338946504
 30
0.0
 10
85.81510084782863
 20
785.3218265694844
 30
0.0
 10
85.47865168866592
 20
785.3678778334037
 30
0.0
 10
84.77218958979371
 20
785.2999734936877
 30
0.0
 10
84.40258331285841
 20
785.1863603232828
 30
0.0
 10
83.66740401646791
 20
784.8307859634727
 30
0.0
 10
83.30208286338836
 20
784.5893660331915
 30
0.0
 10
82.60418236608528
 20
784.0238479797113
 30
0.0
 10
82.27163028425869
 20
783.7001624181463
 30
0.0
 10
81.96322584989632
 20
783.3572641535644
 30
0.0
  0
SPLINE
  5
F7
330
1F
100
AcDbEntity
  8
0
  6
Continuous
 62
     7
370
    25
100
AcDbSpline
210
0.0
220
0.0
230
1.0
 70
     8
 71
     3
 72
    22
 73
    18
 74
     0
 42
0.00000001
 43
0.00000001
 40
0.0
 40
0.0
 40
0.0
 40
0.0
 40
0.125
 40
0.125
 40
0.25
 40
0.25
 40
0.375
 40
0.375
 40
0.5
 40
0.5
 40
0.625
 40
0.625
 40
0.75
 40
0.75
 40
0.875
 40
0.875
 40
1.0
 40
1.0
 40
1.0
 40
1.0
 10
81.5959273130844
 20
783.5703647622938
 30
0.0
 10
81.7405439367452
 20
784.0082900380528
 30
0.0
 10
81.85649629934444
 20
784.4576432170785
 30
0.0
 10
82.00106364350631
 20
785.3441961235369
 30
0.0
 10
82.02933399465473
 20
785.781167421073
 30
0.0
 10
81.97313862536203
 20
786.595884429405
 30
0.0
 10
81.88832802236291
 20
786.9731428475461
 30
0.0
 10
81.59664769389715
 20
787.6201531121335
 30
0.0
 10
81.38968252303626
 20
787.8893819621113
 30
0.0
 10
80.86801320721229
 20
788.287098463626
 30
0.0
 10
80.55358670069928
 20
788.4153744458357
 30
0.0
 10
79.85243228517409
 20
788.525293425474
 30
0.0
 10
79.46618342255867
 20
788.5071669650439
 30
0.0
 10
78.66567338824457
 20
788.3455952838681
 30
0.0
 10
78.25179077574664
 20
788.2026116809751
 30
0.0
 10
77.43517748500591
 20
787.8284212129865
 30
0.0
 10
77.0325758125679
 20
787.5976071682602
 30
0.0
 10
76.6485851398992
 20
787.3421787471885
 30
0.0
  0
SPLINE
  5
F8
330
1F
100
AcDbEntity
  8
0
  6
Continuous
 62
     7
370
    25
100
AcDbSpline
210
0.0
220
0.0
230
1.0
 70
     8
 71
     3
 72
    22
 73
    18
 74
     0
 42
0.00000001
 43
0.00000001
 40
0.0
 40
0.0
 40
0.0
 40
0.0
 40
0.125
 40
0.125
 40
0.25
 40
0.25
 40
0.375
 40
0.375
 40
0.5
 40
0.5
 40
0.625
 40
0.625
 40
0.75
 40
0.75
 40
0.875
 40
0.875
 40
1.0
 40
1.0
 40
1.0
 40
1.0
 10
76.34582192837566
 20
787.6399278401058
 30
0.0
 10
76.59480274228794
 20
788.0281301962182
 30
0.0
 10
76.8188618395837
 20
788.4345299388508
 30
0.0
 10
77.17936407706082
 20
789.2572777189887
 30
0.0
 10
77.31541660582089
 20
789.6734902092414
 30
0.0
 10
77.46359859826396
 20
790.4765866046456
 30
0.0
 10
77.47527282975338
 20
790.8630842951413
 30
0.0
 10
77.35366108486367
 20
791.5623054904723
 30
0.0
 10
77.22015259775021
 20
791.8745461660393
 30
0.0
 10
76.81378055465092
 20
792.389501555599
 30
0.0
 10
76.54113327457162
 20
792.591942204371
 30
0.0
 10
75.88934265298649
 20
792.8727778896193
 30
0.0
 10
75.51072064125302
 20
792.951277091337
 30
0.0
 10
74.69517885854121
 20
792.9938602317429
 30
0.0
 10
74.2587405533219
 20
792.9582971418648
 30
0.0
 10
73.37472528549435
 20
792.7989460226479
 30
0.0
 10
72.92737096618961
 20
792.6755063900649
 30
0.0
 10
72.49192160139728
 20
792.5235973195996
 30
0.0
  0
SPLINE
  5
F9
330
1F
100
AcDbEntity
  8
0
  6
Continuous
 62
     7
370
    25
100
AcDbSpline
210
0.0
220
0.0
230
1.0
 70
     8
 71
     3
 72
    22
 73
    18
 74
     0
 42
0.00000001
 43
0.00000001
 40
0.0
 40
0.0
 40
0.0
 40
0.0
 40
0.125
 40
0.125
 40
0.25
 40
0.25
 40
0.375
 40
0.375
 40
0.5
 40
0.5
 40
0.625
 40
0.625
 40
0.75
 40
0.75
 40
0.875
 40
0.875
 40
1.0
 40
1.0
 40
1.0
 40
1.0
 10
72.27271744122734
 20
792.887286226152
 30
0.0
 10
72.6104180651656
 20
793.201373480875
 30
0.0
 10
72.9285054400431
 20
793.5392841966511
 30
0.0
 10
73.48229088942027
 20
794.2465305815878
 30
0.0
 10
73.71757691504376
 20
794.6158321030722
 30
0.0
 10
74.06082544966219
 20
795.3568463854431
 30
0.0
 10
74.16825098074082
 20
795.7282982769607
 30
0.0
 10
74.22434913261532
 20
796.435795763777
 30
0.0
 10
74.1726861585045
 20
796.7714290349464
 30
0.0
 10
73.90714523812963
 20
797.3712667715517
 30
0.0
 10
73.69340861581802
 20
797.635151996399
 30
0.0
 10
73.13193619004531
 20
798.0692584483115
 30
0.0
 10
72.78473124266536
 20
798.2394509186336
 30
0.0
 10
72.00540120111654
 20
798.4835132252995
 30
0.0
 10
71.5738302270006
 20
798.5576052081653
 30
0.0
 10
70.67795891254455
 20
798.6231060545929
 30
0.0
 10
70.21396086350909
 20
798.6147970002477
 30
0.0
 10
69.75441369165375
 20
798.5759522859685
 30
0.0
  0
SPLINE
  5
FA
330
1F
100
AcDbEntity
  8
0
  6
Continuous
 62
     7
370
    25
100
AcDbSpline
210
0.0
220
0.0
230
1.0
 70
     8
 71
     3
 72
    22
 73
    18
 74
     0
 42
0.00000001
 43
0.00000001
 40
0.0
 40
0.0
 40
0.0
 40
0.0
 40
0.125
 40
0.125
 40
0.25
 40
0.25
 40
0.375
 40
0.375
 40
0.5
 40
0.5
 40
0.625
 40
0.625
 40
0.75
 40
0.75
 40
0.875
 40
0.875
 40
1.0
 40
1.0
 40
1.0
 40
1.0
 10
69.6325419863974
 20
798.9827290946031
 30
0.0
 10
70.03774344818362
 20
799.2029659905902
 30
0.0
 10
70.42987250103572
 20
799.451155506489
 30
0.0
 10
71.14214478584819
 20
799.9984616047886
 30
0.0
 10
71.46188042202374
 20
800.2976475847138
 30
0.0
 10
71.97862793100762
 20
800.9300191014305
 30
0.0
 10
72.17505482047433
 20
801.2630855055211
 30
0.0
 10
72.4053380159162
 20
801.9344046147324
 30
0.0
 10
72.43876672947451
 20
802.2723414087038
 30
0.0
 10
72.33074184444243
 20
802.919371481315
 30
0.0
 10
72.1893457379466
 20
803.2281204030583
 30
0.0
 10
71.7534708854488
 20
803.7882211167297
 30
0.0
 10
71.45949916619674
 20
804.0394130368215
 30
0.0
 10
70.76534903849677
 20
804.4696191774212
 30
0.0
 10
70.36576258699492
 20
804.6487107612562
 30
0.0
 10
69.51432611538189
 20
804.9349479142519
 30
0.0
 10
69.06283904050206
 20
805.0422915265875
 30
0.0
 10
68.60806910048765
 20
805.1189519247536
 30
0.0
  0
SPLINE
  5
FB
330
1F
100
AcDbEntity
  8
0
  6
Continuous
 62
     7
370
    25
100
AcDbSpline
210
0.0
220
0.0
230
1.0
 70
     8
 71
     3
 72
    22
 73
    18
 74
     0
 42
0.00000001
 43
0.00000001
 40
0.0
 40
0.0
 40
0.0
 40
0.0
 40
0.125
 40
0.125
 40
0.2499999999999999
 40
0.2499999999999999
 40
0.3749999999999999
 40
0.3749999999999999
 40
0.4999999999999999
 40
0.4999999999999999
 40
0.6249999999999999
 40
0.6249999999999999
 40
0.7499999999999998
 40
0.7499999999999998
 40
0.8749999999999999
 40
0.8749999999999999
 40
1.0
 40
1.0
 40
1.0
 40
1.0
 10
68.59118749759894
 20
805.5432573525635
 30
0.0
 10
69.03842949916232
 20
805.6558055956651
 30
0.0
 10
69.47996131944859
 20
805.7986792516256
 30
0.0
 10
70.30596575248731
 20
806.151655808281
 30
0.0
 10
70.6900608332886
 20
806.3619272911992
 30
0.0
 10
71.34783817018409
 20
806.8459218141663
 30
0.0
 10
71.62092419416615
 20
807.1196749437286
 30
0.0
 10
72.01092289308339
 20
807.7126342267642
 30
0.0
 10
72.12734284529579
 20
808.0316407319278
 30
0.0
 10
72.18362159642076
 20
808.6852078614723
 30
0.0
 10
72.12345044313038
 20
809.0194206498595
 30
0.0
 10
71.84056078392548
 20
809.6703224375435
 30
0.0
 10
71.61829361707426
 20
809.9867304952465
 30
0.0
 10
71.05293940865216
 20
810.5760490357786
 30
0.0
 10
70.71044496608843
 20
810.8488872377178
 30
0.0
 10
69.95694222219416
 20
811.3378753642521
 30
0.0
 10
69.54633471483797
 20
811.5541268493236
 30
0.0
 10
69.12491687452244
 20
811.7414755051807
 30
0.0
  0
SPLINE
  5
FC
330
1F
100
AcDbEntity
  8
0
  6
Continuous
 62
     7
370
    25
100
AcDbSpline
210
0.0
220
0.0
230
1.0
 70
     8
 71
     3
 72
    22
 73
    18
 74
     0
 42
0.00000001
 43
0.00000001
 40
0.0
 40
0.0
 40
0.0
 40
0.0
 40
0.1250000000000002
 40
0.1250000000000002
 40
0.2500000000000003
 40
0.2500000000000003
 40
0.3750000000000005
 40
0.3750000000000005
 40
0.5000000000000007
 40
0.5000000000000007
 40
0.6250000000000004
 40
0.6250000000000004
 40
0.7500000000000003
 40
0.7500000000000003
 40
0.8750000000000001
 40
0.8750000000000001
 40
1.0
 40
1.0
 40
1.0
 40
1.0
 10
69.21408610719703
 20
812.1566488816504
 30
0.0
 10
69.67526678873834
 20
812.1544366518291
 30
0.0
 10
70.13845830834974
 20
812.1830171705946
 30
0.0
 10
71.02629399325511
 20
812.3194853703941
 30
0.0
 10
71.4506144121525
 20
812.4276302257092
 30
0.0
 10
72.20809100774665
 20
812.7328365990415
 30
0.0
 10
72.54067716701707
 20
812.9300755381513
 30
0.0
 10
73.06588631684185
 20
813.4074171825063
 30
0.0
 10
73.25798241394818
 20
813.6874490469189
 30
0.0
 10
73.4750286003183
 20
814.3064872069959
 30
0.0
 10
73.4998631750886
 20
814.6451640433839
 30
0.0
 10
73.38773370685985
 20
815.345968351911
 30
0.0
 10
73.25113695594418
 20
815.707711465292
 30
0.0
 10
72.85010195094243
 20
816.4191133544931
 30
0.0
 10
72.58621970274955
 20
816.7685547468797
 30
0.0
 10
71.97799603516215
 20
817.4295689245903
 30
0.0
 10
71.63406807512557
 20
817.7411404062728
 30
0.0
 10
71.27248156728236
 20
818.0274055147536
 30
0.0
  0
SPLINE
  5
FD
330
1F
100
AcDbEntity
  8
0
  6
Continuous
 62
     7
370
    25
100
AcDbSpline
210
0.0
220
0.0
230
1.0
 70
     8
 71
     3
 72
    22
 73
    18
 74
     0
 42
0.00000001
 43
0.00000001
 40
0.0
 40
0.0
 40
0.0
 40
0.0
 40
0.125
 40
0.125
 40
0.25
 40
0.25
 40
0.375
 40
0.375
 40
0.5
 40
0.5
 40
0.625
 40
0.625
 40
0.75
 40
0.75
 40
0.875
 40
0.875
 40
1.0
 40
1.0
 40
1.0
 40
1.0
 10
71.46209880468983
 20
818.4073599697385
 30
0.0
 10
71.90824048788392
 20
818.29052626953
 30
0.0
 10
72.363987680144
 20
818.2030178319947
 30
0.0
 10
73.25786863560218
 20
818.11440287605
 30
0.0
 10
73.69575278013501
 20
818.1136259647735
 30
0.0
 10
74.50533359412253
 20
818.2208669495641
 30
0.0
 10
74.87652227712807
 20
818.3291984502832
 30
0.0
 10
75.50394105539277
 20
818.660929324903
 30
0.0
 10
75.75964319313182
 20
818.8843911166382
 30
0.0
 10
76.12381900461737
 20
819.4300038629871
 30
0.0
 10
76.2320988597804
 20
819.7518644361794
 30
0.0
 10
76.29777508939992
 20
820.4585371534666
 30
0.0
 10
76.25543163064756
 20
820.8428856723142
 30
0.0
 10
76.04391433333399
 20
821.6316709131324
 30
0.0
 10
75.87522497165693
 20
822.0357588081273
 30
0.0
 10
75.45049731030112
 20
822.8272650851884
 30
0.0
 10
75.19485915619181
 20
823.2145793814084
 30
0.0
 10
74.91582379093086
 20
823.5817738529373
 30
0.0
  0
SPLINE
  5
FE
330
1F
100
AcDbEntity
  8
0
  6
Continuous
 62
     7
370
    25
100
AcDbSpline
210
0.0
220
0.0
230
1.0
 70
     8
 71
     3
 72
    22
 73
    18
 74
     0
 42
0.00000001
 43
0.00000001
 40
0.0
 40
0.0
 40
0.0
 40
0.0
 40
0.125
 40
0.125
 40
0.25
 40
0.25
 40
0.375
 40
0.375
 40
0.5
 40
0.5
 40
0.625
 40
0.625
 40
0.75
 40
0.75
 40
0.875
 40
0.875
 40
1.0
 40
1.0
 40
1.0
 40
1.0
 10
75.19397468468149
 20
823.9026354506562
 30
0.0
 10
75.59704464677893
 20
823.6785213711287
 30
0.0
 10
76.01671123947709
 20
823.4804224542565
 30
0.0
 10
76.86047163759245
 20
823.1722923461526
 30
0.0
 10
77.28440563653446
 20
823.0626424844774
 30
0.0
 10
78.0952217289426
 20
822.9651797352469
 30
0.0
 10
78.48168978559353
 20
822.9777969309698
 30
0.0
 10
79.1718951629749
 20
823.1430731649813
 30
0.0
 10
79.47513663562584
 20
823.2959239578296
 30
0.0
 10
79.96355956664628
 20
823.7338284349736
 30
0.0
 10
80.14848108067666
 20
824.0186490614362
 30
0.0
 10
80.3878363290972
 20
824.6867873416961
 30
0.0
 10
80.4424067577499
 20
825.0695912350359
 30
0.0
 10
80.43369757782092
 20
825.8861975498417
 30
0.0
 10
80.37080047564996
 20
826.3195416188709
 30
0.0
 10
80.15625602152777
 20
827.1918067449383
 30
0.0
 10
80.00497035873977
 20
827.6305274740218
 30
0.0
 10
79.82601895428071
 20
828.055579129506
 30
0.0
  0
SPLINE
  5
FF
330
1F
100
AcDbEntity
  8
0
  6
Continuous
 62
     7
370
    25
100
AcDbSpline
210
0.0
220
0.0
230
1.0
 70
     8
 71
     3
 72
    22
 73
    18
 74
     0
 42
0.00000001
 43
0.00000001
 40
0.0
 40
0.0
 40
0.0
 40
0.0
 40
0.125
 40
0.125
 40
0.25
 40
0.25
 40
0.375
 40
0.375
 40
0.5
 40
0.5
 40
0.625
 40
0.625
 40
0.75
 40
0.75
 40
0.875
 40
0.875
 40
1.0
 40
1.0
 40
1.0
 40
1.0
 10
80.17522626075268
 20
828.2971869557277
 30
0.0
 10
80.50989813364728
 20
827.979874408732
 30
0.0
 10
80.86711493133852
 20
827.6836322960269
 30
0.0
 10
81.60773820316379
 20
827.1753479836791
 30
0.0
 10
81.9910847242413
 20
826.9637148756781
 30
0.0
 10
82.75218953801104
 20
826.6676723354038
 30
0.0
 10
83.12965375897787
 20
826.5837824413204
 30
0.0
 10
83.83927759321726
 20
826.572219121097
 30
0.0
 10
84.1710046238093
 20
826.6448547375977
 30
0.0
 10
84.7529852653147
 20
826.9475357967381
 30
0.0
 10
85.00292913939215
 20
827.1774201490133
 30
0.0
 10
85.40092383606843
 20
827.7650424068565
 30
0.0
 10
85.54897929139793
 20
828.1222486982157
 30
0.0
 10
85.74362545865864
 20
828.9153657089817
 30
0.0
 10
85.79047267224249
 20
829.3507373504602
 30
0.0
 10
85.79959204244574
 20
830.2489536996965
 30
0.0
 10
85.76216470556177
 20
830.7115144247332
 30
0.0
 10
85.694541436784
 20
831.1677157054279
 30
0.0
  0
SPLINE
  5
100
330
1F
100
AcDbEntity
  8
0
  6
Continuous
 62
     7
370
    25
100
AcDbSpline
210
0.0
220
0.0
230
1.0
 70
     8
 71
     3
 72
    22
 73
    18
 74
     0
 42
0.00000001
 43
0.00000001
 40
0.0
 40
0.0
 40
0.0
 40
0.0
 40
0.125
 40
0.125
 40
0.2500000000000001
 40
0.2500000000000001
 40
0.3750000000000001
 40
0.3750000000000001
 40
0.5000000000000001
 40
0.5000000000000001
 40
0.6250000000000001
 40
0.6250000000000001
 40
0.7500000000000002
 40
0.7500000000000002
 40
0.8750000000000001
 40
0.8750000000000001
 40
1.0
 40
1.0
 40
1.0
 40
1.0
 10
86.09286317661707
 20
831.3148886518595
 30
0.0
 10
86.33810829569781
 20
830.9243155517172
 30
0.0
 10
86.61043005323168
 20
830.5485442246226
 30
0.0
 10
87.20138011477624
 20
829.8720430807148
 30
0.0
 10
87.52005208622003
 20
829.5717244128961
 30
0.0
 10
88.18362260675455
 20
829.0957035231515
 30
0.0
 10
88.52836552681764
 20
828.9205776498324
 30
0.0
 10
89.21281954259585
 20
828.7329013413108
 30
0.0
 10
89.55218850179024
 20
828.7207578185443
 30
0.0
 10
90.19115886969975
 20
828.8691968955519
 30
0.0
 10
90.49042021098671
 20
829.0297004943309
 30
0.0
 10
91.02204688540444
 20
829.4998842621736
 30
0.0
 10
91.25428449864253
 20
829.8090483665533
 30
0.0
 10
91.64005567854538
 20
830.5288416146127
 30
0.0
 10
91.79370362516259
 20
830.9388848271217
 30
0.0
 10
92.02591381612271
 20
831.8066141628954
 30
0.0
 10
92.10469650236732
 20
832.263950492352
 30
0.0
 10
92.15265038794912
 20
832.7226365940003
 30
0.0
  0
SPLINE
  5
101
330
1F
100
AcDbEntity
  8
0
  6
Continuous
 62
     7
370
    25
100
AcDbSpline
210
0.0
220
0.0
230
1.0
 70
     8
 71
     3
 72
    22
 73
    18
 74
     0
 42
0.00000001
 43
0.00000001
 40
0.0
 40
0.0
 40
0.0
 40
0.0
 40
0.125
 40
0.125
 40
0.25
 40
0.25
 40
0.3749999999999999
 40
0.3749999999999999
 40
0.4999999999999999
 40
0.4999999999999999
 40
0.6249999999999999
 40
0.6249999999999999
 40
0.7499999999999999
 40
0.7499999999999999
 40
0.875
 40
0.875
 40
1.0
 40
1.0
 40
1.0
 40
1.0
 10
92.57505854130471
 20
832.7661272431533
 30
0.0
 10
92.71546725379127
 20
832.3268347341736
 30
0.0
 10
92.8857829936126
 20
831.8951452871611
 30
0.0
 10
93.28992827914728
 20
831.0929343665624
 30
0.0
 10
93.52390236899804
 20
830.7228002653195
 30
0.0
 10
94.04824402005046
 20
830.0967111692898
 30
0.0
 10
94.33860417366648
 20
829.8413531194235
 30
0.0
 10
94.95488160792641
 20
829.4893562152934
 30
0.0
 10
95.2805686959052
 20
829.3931965754556
 30
0.0
 10
95.93637993203444
 20
829.3780666972017
 30
0.0
 10
96.26615504985165
 20
829.4591045110819
 30
0.0
 10
96.89800964287102
 20
829.7823064135756
 30
0.0
 10
97.19983707066774
 20
830.0240024132717
 30
0.0
 10
97.7524938412123
 20
830.6252446416346
 30
0.0
 10
98.0032882552993
 20
830.9841949020985
 30
0.0
 10
98.44399864670892
 20
831.7669145989578
 30
0.0
 10
98.63404115016289
 20
832.1902904092892
 30
0.0
 10
98.79455907111111
 20
832.622640397195
 30
0.0
  0
SPLINE
  5
102
330
1F
100
AcDbEntity
  8
0
  6
Continuous
 62
     7
370
    25
100
AcDbSpline
210
0.0
220
0.0
230
1.0
 70
     8
 71
     3
 72
    22
 73
    18
 74
     0
 42
0.00000001
 43
0.00000001
 40
0.0
 40
0.0
 40
0.0
 40
0.0
 40
0.125
 40
0.125
 40
0.25
 40
0.25
 40
0.375
 40
0.375
 40
0.5
 40
0.5
 40
0.625
 40
0.625
 40
0.75
 40
0.75
 40
0.875
 40
0.875
 40
1.0
 40
1.0
 40
1.0
 40
1.0
 10
99.21451218020532
 20
832.5597160716356
 30
0.0
 10
99.24126209030507
 20
832.0993065177628
 30
0.0
 10
99.29887024810337
 20
831.638823586431
 30
0.0
 10
99.49081682299564
 20
830.7613087516077
 30
0.0
 10
99.62539157869153
 20
830.3446161037798
 30
0.0
 10
99.97755804593254
 20
829.6077982819633
 30
0.0
 10
100.1952910367798
 20
829.2882531409642
 30
0.0
 10
100.7046689118171
 20
828.7940529012659
 30
0.0
 10
100.9962100110493
 20
828.6199192081783
 30
0.0
 10
101.6276550835272
 20
828.4421710405572
 30
0.0
 10
101.9672229943942
 20
828.4386511656568
 30
0.0
 10
102.6596037581371
 20
828.5945632386142
 30
0.0
 10
103.0120560731604
 20
828.7536044850699
 30
0.0
 10
103.6968729769239
 20
829.1985174333141
 30
0.0
 10
104.0290555230863
 20
829.4838205767413
 30
0.0
 10
104.6505746602337
 20
830.1323494774908
 30
0.0
 10
104.9399359114776
 20
830.4951625094666
 30
0.0
 10
105.2029319364754
 20
830.8740102438177
 30
0.0
  0
SPLINE
  5
103
330
1F
100
AcDbEntity
  8
0
  6
Continuous
 62
     7
370
    25
100
AcDbSpline
210
0.0
220
0.0
230
1.0
 70
     8
 71
     3
 72
    22
 73
    18
 74
     0
 42
0.00000001
 43
0.00000001
 40
0.0
 40
0.0
 40
0.0
 40
0.0
 40
0.125
 40
0.125
 40
0.25
 40
0.25
 40
0.375
 40
0.375
 40
0.5
 40
0.5
 40
0.625
 40
0.625
 40
0.75
 40
0.75
 40
0.875
 40
0.875
 40
1.0
 40
1.0
 40
1.0
 40
1.0
 10
105.5940428029844
 20
830.7086247103404
 30
0.0
 10
105.5054531154665
 20
830.256027337112
 30
0.0
 10
105.4467339588193
 20
829.7956847575742
 30
0.0
 10
105.4144211138385
 20
828.8980034928721
 30
0.0
 10
105.4411407085479
 20
828.4609346300108
 30
0.0
 10
105.599004077663
 20
827.6596850559783
 30
0.0
 10
105.7304289411608
 20
827.2960310202603
 30
0.0
 10
106.1009011717259
 20
826.6906798635956
 30
0.0
 10
106.3399776827336
 20
826.4495135776137
 30
0.0
 10
106.9073805753639
 20
826.1203156917092
 30
0.0
 10
107.2354049785974
 20
826.0324592947129
 30
0.0
 10
107.9448070832797
 20
826.0112850091858
 30
0.0
 10
108.3257384103477
 20
826.0776783559736
 30
0.0
 10
109.0996858826863
 20
826.3383065072854
 30
0.0
 10
109.4923843098667
 20
826.5320358879029
 30
0.0
 10
110.2556598595774
 20
827.0056245365862
 30
0.0
 10
110.6261582269993
 20
827.2850779130741
 30
0.0
 10
110.9751073485644
 20
827.586618997417
 30
0.0
  0
SPLINE
  5
104
330
1F
100
AcDbEntity
  8
0
  6
Continuous
 62
     7
370
    25
100
AcDbSpline
210
0.0
220
0.0
230
1.0
 70
     8
 71
     3
 72
    22
 73
    18
 74
     0
 42
0.00000001
 43
0.00000001
 40
0.0
 40
0.0
 40
0.0
 40
0.0
 40
0.125
 40
0.125
 40
0.2500000000000001
 40
0.2500000000000001
 40
0.3750000000000001
 40
0.3750000000000001
 40
0.5000000000000001
 40
0.5000000000000001
 40
0.6250000000000001
 40
0.6250000000000001
 40
0.75
 40
0.75
 40
0.875
 40
0.875
 40
1.0
 40
1.0
 40
1.0
 40
1.0
 10
111.31280103834
 20
827.3291640373355
 30
0.0
 10
111.1144381690812
 20
826.9128172022484
 30
0.0
 10
110.9430812385547
 20
826.4815399917986
 30
0.0
 10
110.6885393085894
 20
825.6200969125197
 30
0.0
 10
110.6057248519088
 20
825.1901144787053
 30
0.0
 10
110.5593659868358
 20
824.3747786099832
 30
0.0
 10
110.5962248154636
 20
823.9898654000363
 30
0.0
 10
110.8045132688087
 20
823.3113997659042
 30
0.0
 10
110.9761031351433
 20
823.018354251724
 30
0.0
 10
111.4438118374202
 20
822.5583913614124
 30
0.0
 10
111.7396817533757
 20
822.391718782857
 30
0.0
 10
112.4215308557616
 20
822.1947885970786
 30
0.0
 10
112.8070058786272
 20
822.1643623060421
 30
0.0
 10
113.6214539534742
 20
822.2243294351515
 30
0.0
 10
114.0499935752491
 20
822.314312323488
 30
0.0
 10
114.9070661276037
 20
822.5832034035711
 30
0.0
 10
115.3354218361808
 20
822.761738041169
 30
0.0
 10
115.7483982976602
 20
822.9670255401835
 30
0.0
  0
SPLINE
  5
105
330
1F
100
AcDbEntity
  8
0
  6
Continuous
 62
     7
370
    25
100
AcDbSpline
210
0.0
220
0.0
230
1.0
 70
     8
 71
     3
 72
    22
 73
    18
 74
     0
 42
0.00000001
 43
0.00000001
 40
0.0
 40
0.0
 40
0.0
 40
0.0
 40
0.125
 40
0.125
 40
0.25
 40
0.25
 40
0.375
 40
0.375
 40
0.5
 40
0.5
 40
0.625
 40
0.625
 40
0.75
 40
0.75
 40
0.875
 40
0.875
 40
1.0
 40
1.0
 40
1.0
 40
1.0
 10
116.0114562742237
 20
822.6336779954929
 30
0.0
 10
115.7157840918273
 20
822.2797423014118
 30
0.0
 10
115.4425563735731
 20
821.9046291933093
 30
0.0
 10
114.9817791642227
 20
821.1335519362908
 30
0.0
 10
114.7946341930356
 20
820.7376733092044
 30
0.0
 10
114.5469659917629
 20
819.9594816970201
 30
0.0
 10
114.4869428097608
 20
819.5774948254372
 30
0.0
 10
114.5199599563309
 20
818.8685452048522
 30
0.0
 10
114.6132815556273
 20
818.5420335898757
 30
0.0
 10
114.9519082096744
 20
817.9802068551804
 30
0.0
 10
115.197033043399
 20
817.7451907461553
 30
0.0
 10
115.8084860567201
 20
817.3848785079567
 30
0.0
 10
116.1742839620186
 20
817.2595443748618
 30
0.0
 10
116.9780578715009
 20
817.115082526503
 30
0.0
 10
117.4155119673757
 20
817.0956649667507
 30
0.0
 10
118.3125285018174
 20
817.1429630627597
 30
0.0
 10
118.7718263869978
 20
817.2093609735828
 30
0.0
 10
119.2228813584955
 20
817.3054959187114
 30
0.0
  0
SPLINE
  5
106
330
1F
100
AcDbEntity
  8
0
  6
Continuous
 62
     7
370
    25
100
AcDbSpline
210
0.0
220
0.0
230
1.0
 70
     8
 71
     3
 72
    22
 73
    18
 74
     0
 42
0.00000001
 43
0.00000001
 40
0.0
 40
0.0
 40
0.0
 40
0.0
 40
0.1249999999999998
 40
0.1249999999999998
 40
0.2499999999999996
 40
0.2499999999999996
 40
0.3749999999999994
 40
0.3749999999999994
 40
0.4999999999999996
 40
0.4999999999999996
 40
0.6249999999999997
 40
0.6249999999999997
 40
0.7499999999999998
 40
0.7499999999999998
 40
0.875
 40
0.875
 40
1.0
 40
1.0
 40
1.0
 40
1.0
 10
119.3947747217197
 20
816.917201241611
 30
0.0
 10
119.0203713968117
 20
816.6479157698798
 30
0.0
 10
118.662440793229
 20
816.352536500276
 30
0.0
 10
118.024380631177
 20
815.7202746854
 30
0.0
 10
117.7446641522942
 20
815.3833743751214
 30
0.0
 10
117.3112485187678
 20
814.6912236604571
 30
0.0
 10
117.1581148034107
 20
814.3361647672289
 30
0.0
 10
117.0137860544581
 20
813.6412770721868
 30
0.0
 10
117.0229756474197
 20
813.3018152820085
 30
0.0
 10
117.2112430951815
 20
812.6734263429249
 30
0.0
 10
117.3902207518662
 20
812.3848336298889
 30
0.0
 10
117.8928578345287
 20
811.8837790823317
 30
0.0
 10
118.2159941945597
 20
811.6714123117075
 30
0.0
 10
118.9585898678707
 20
811.3315985551066
 30
0.0
 10
119.377471588158
 20
811.2040006239572
 30
0.0
 10
120.2580692568318
 20
811.0267338225698
 30
0.0
 10
120.7194499433101
 20
810.9768229816865
 30
0.0
 10
121.1802419821027
 20
810.9577648607672
 30
0.0
  0
SPLINE
  5
107
330
1F
100
AcDbEntity
  8
0
  6
Continuous
 62
     7
370
    25
100
AcDbSpline
210
0.0
220
0.0
230
1.0
 70
     8
 71
     3
 72
    22
 73
    18
 74
     0
 42
0.00000001
 43
0.00000001
 40
0.0
 40
0.0
 40
0.0
 40
0.0
 40
0.1249999999999999
 40
0.1249999999999999
 40
0.2499999999999999
 40
0.2499999999999999
 40
0.3749999999999998
 40
0.3749999999999998
 40
0.4999999999999999
 40
0.4999999999999999
 40
0.6249999999999999
 40
0.6249999999999999
 40
0.75
 40
0.75
 40
0.875
 40
0.875
 40
1.0
 40
1.0
 40
1.0
 40
1.0
 10
121.2501700397967
 20
810.5389210338673
 30
0.0
 10
120.8205607102402
 20
810.3712059810373
 30
0.0
 10
120.4004173175288
 20
810.1741203157704
 30
0.0
 10
119.6251658693781
 20
809.7204012781621
 30
0.0
 10
119.2704534978931
 20
809.4636479702187
 30
0.0
 10
118.6785235303585
 20
808.9010285280289
 30
0.0
 10
118.4419012361688
 20
808.5952072692324
 30
0.0
 10
118.1292952977943
 20
807.9580438492308
 30
0.0
 10
118.0537754684983
 20
807.6269615165808
 30
0.0
 10
118.0798541738327
 20
806.9714943612042
 30
0.0
 10
118.1814388290743
 20
806.6474583856872
 30
0.0
 10
118.5436774446045
 20
806.037144628744
 30
0.0
 10
118.8038484134548
 20
805.7510890058193
 30
0.0
 10
119.4386058333647
 20
805.2372750890509
 30
0.0
 10
119.8125952990396
 20
805.0095142337912
 30
0.0
 10
120.621442911811
 20
804.61882086008
 30
0.0
 10
121.0559161542163
 20
804.4557373491823
 30
0.0
 10
121.497492001832
 20
804.3226836540433
 30
0.0
  0
SPLINE
  5
108
330
1F
100
AcDbEntity
  8
0
  6
Continuous
 62
     7
370
    25
100
AcDbSpline
210
0.0
220
0.0
230
1.0
 70
     8
 71
     3
 72
    22
 73
    18
 74
     0
 42
0.00000001
 43
0.00000001
 40
0.0
 40
0.0
 40
0.0
 40
0.0
 40
0.1249999999999999
 40
0.1249999999999999
 40
0.2499999999999999
 40
0.2499999999999999
 40
0.3749999999999998
 40
0.3749999999999998
 40
0.4999999999999999
 40
0.4999999999999999
 40
0.6249999999999999
 40
0.6249999999999999
 40
0.75
 40
0.75
 40
0.875
 40
0.875
 40
1.0
 40
1.0
 40
1.0
 40
1.0
 10
121.4610609169533
 20
803.8996081753878
 30
0.0
 10
121.0032395169171
 20
803.8440016950414
 30
0.0
 10
120.5472824896203
 20
803.7575932512904
 30
0.0
 10
119.6835516550336
 20
803.5109258267445
 30
0.0
 10
119.2761312737876
 20
803.3504522757471
 30
0.0
 10
118.5628801090712
 20
802.952715554754
 30
0.0
 10
118.2576370850287
 20
802.7153478048114
 30
0.0
 10
117.7963961380246
 20
802.1759439808521
 30
0.0
 10
117.6409120750881
 20
801.8740442263264
 30
0.0
 10
117.5031634170282
 20
801.2326842666688
 30
0.0
 10
117.5209721333356
 20
800.8935654007335
 30
0.0
 10
117.7200514972994
 20
800.2123406923303
 30
0.0
 10
117.9009095761543
 20
799.8705701439321
 30
0.0
 10
118.3879445994956
 20
799.2150408850622
 30
0.0
 10
118.6935426769927
 20
798.901428157874
 30
0.0
 10
119.3798173636179
 20
798.3218569133791
 30
0.0
 10
119.760083610249
 20
798.055847869236
 30
0.0
 10
120.1546974321797
 20
797.8171588528802
 30
0.0
  0
SPLINE
  5
109
330
1F
100
AcDbEntity
  8
0
  6
Continuous
 62
     7
370
    25
100
AcDbSpline
210
0.0
220
0.0
230
1.0
 70
     8
 71
     3
 72
    22
 73
    18
 74
     0
 42
0.00000001
 43
0.00000001
 40
0.0
 40
0.0
 40
0.0
 40
0.0
 40
0.125
 40
0.125
 40
0.25
 40
0.25
 40
0.375
 40
0.375
 40
0.5
 40
0.5
 40
0.625
 40
0.625
 40
0.75
 40
0.75
 40
0.875
 40
0.875
 40
1.0
 40
1.0
 40
1.0
 40
1.0
 10
120.0141963037755
 20
797.4164351107557
 30
0.0
 10
119.5569294355731
 20
797.4764311625592
 30
0.0
 10
119.0938082306086
 20
797.5061293006331
 30
0.0
 10
118.1958693945028
 20
797.4820125106131
 30
0.0
 10
117.7613407244367
 20
797.4279018599512
 30
0.0
 10
116.971584556372
 20
797.2200391211084
 30
0.0
 10
116.6169003442827
 20
797.0660395687261
 30
0.0
 10
116.0360058536747
 20
796.6582880668569
 30
0.0
 10
115.8103271926025
 20
796.4045403623421
 30
0.0
 10
115.5174064259384
 20
795.8175866034256
 30
0.0
 10
115.45032021617
 20
795.4846929326105
 30
0.0
 10
115.4737314399668
 20
794.7753611265454
 30
0.0
 10
115.5639126505824
 20
794.399350353174
 30
0.0
 10
115.872623075649
 20
793.6432950664054
 30
0.0
 10
116.0906279138481
 20
793.2635359083247
 30
0.0
 10
116.6112085118246
 20
792.5315033858517
 30
0.0
 10
116.9133742358843
 20
792.1792831350194
 30
0.0
 10
117.23623099441
 20
791.8499565061812
 30
0.0
  0
SPLINE
  5
10A
330
1F
100
AcDbEntity
  8
0
  6
Continuous
 62
     7
370
    25
100
AcDbSpline
210
0.0
220
0.0
230
1.0
 70
     8
 71
     3
 72
    22
 73
    18
 74
     0
 42
0.00000001
 43
0.00000001
 40
0.0
 40
0.0
 40
0.0
 40
0.0
 40
0.125
 40
0.125
 40
0.25
 40
0.25
 40
0.375
 40
0.375
 40
0.5
 40
0.5
 40
0.625
 40
0.625
 40
0.75
 40
0.75
 40
0.875
 40
0.875
 40
1.0
 40
1.0
 40
1.0
 40
1.0
 10
117.000488025105
 20
791.4967634470644
 30
0.0
 10
116.5725074477754
 20
791.6685922584329
 30
0.0
 10
116.1313216736918
 20
791.8125309350945
 30
0.0
 10
115.2555956355274
 20
792.0124801262126
 30
0.0
 10
114.8212617110664
 20
792.0681323470725
 30
0.0
 10
114.0046238242128
 20
792.0632043707271
 30
0.0
 10
113.6227845375594
 20
792.0022493741517
 30
0.0
 10
112.958736240573
 20
791.7517707208403
 30
0.0
 10
112.6770432016283
 20
791.5621189678297
 30
0.0
 10
112.2473556154166
 20
791.066451872992
 30
0.0
 10
112.0995897528581
 20
790.760700330932
 30
0.0
 10
111.9458618231964
 20
790.0678313533199
 30
0.0
 10
111.9396997484463
 20
789.681206494737
 30
0.0
 10
112.0506881638738
 20
788.8721309143143
 30
0.0
 10
112.1674017170251
 20
788.4500869898998
 30
0.0
 10
112.4895782328206
 20
787.6115894850628
 30
0.0
 10
112.6946572505784
 20
787.1952893212768
 30
0.0
 10
112.9254706681768
 20
786.7960178832246
 30
0.0
  0
SPLINE
  5
10B
330
1F
100
AcDbEntity
  8
0
  6
Continuous
 62
     7
370
    25
100
AcDbSpline
210
0.0
220
0.0
230
1.0
 70
     8
 71
     3
 72
    22
 73
    18
 74
     0
 42
0.00000001
 43
0.00000001
 40
0.0
 40
0.0
 40
0.0
 40
0.0
 40
0.125
 40
0.125
 40
0.25
 40
0.25
 40
0.375
 40
0.375
 40
0.5
 40
0.5
 40
0.625
 40
0.625
 40
0.75
 40
0.75
 40
0.875
 40
0.875
 40
1.0
 40
1.0
 40
1.0
 40
1.0
 10
112.6092984557344
 20
786.5125479259731
 30
0.0
 10
112.2374957629537
 20
786.7854128607461
 30
0.0
 10
111.8459667445045
 20
787.0345478795713
 30
0.0
 10
111.0474785919544
 20
787.445999508788
 30
0.0
 10
110.6406302109407
 20
787.6079177674584
 30
0.0
 10
109.8484229671133
 20
787.8062341964878
 30
0.0
 10
109.463420972583
 20
787.8421537823313
 30
0.0
 10
108.7579434659167
 20
787.7646864725613
 30
0.0
 10
108.4379358587309
 20
787.6510471881871
 30
0.0
 10
107.8984803042937
 20
787.2778113439329
 30
0.0
 10
107.6793194615344
 20
787.0184134244907
 30
0.0
 10
107.3581116696066
 20
786.385542781389
 30
0.0
 10
107.2559934953099
 20
786.0125968993661
 30
0.0
 10
107.1622860907702
 20
785.201338219579
 30
0.0
 10
107.1703748170868
 20
784.7635281007707
 30
0.0
 10
107.2739037153315
 20
783.8712514955769
 30
0.0
 10
107.3690101578738
 20
783.4170290891725
 30
0.0
 10
107.4932773786448
 20
782.972900534777
 30
0.0
  0
LINE
  5
10C
330
1F
100
AcDbEntity
  8
0
  6
Continuous
 62
     7
370
    25
100
AcDbLine
 10
92.4320777167
 20
803.3845780109
 30
0.0
 11
97.7235803389
 21
803.3845780109
 31
0.0
  0
ARC
  5
10D
330
1F
100
AcDbEntity
  8
0
  6
Continuous
 62
     7
370
    25
100
AcDbCircle
 10
95.0778290278
 20
806.3845780109
 30
0.0
 40
3.999999999999997
100
AcDbArc
 50
311.4096221093
 51
228.5903778907
  0
ARC
  5
10E
330
1F
100
AcDbEntity
  8
0
  6
Continuous
 62
     7
370
    25
100
AcDbCircle
 10
95.0778290278
 20
806.3845780109
 30
0.0
 40
26.50000000000001
100
AcDbArc
 50
52.2193292213
 51
53.1374576951
  0
ARC
  5
10F
330
1F
100
AcDbEntity
  8
0
  6
Continuous
 62
     7
370
    25
100
AcDbCircle
 10
95.0778290278
 20
806.3845780109
 30
0.0
 40
26.49999999999998
100
AcDbArc
 50
37.8193292213
 51
38.7374576951
  0
ARC
  5
110
330
1F
100
AcDbEntity
  8
0
  6
Continuous
 62
     7
370
    25
100
AcDbCircle
 10
95.0778290278
 20
806.3845780109
 30
0.0
 40
26.50000000000005
100
AcDbArc
 50
95.4193292213
 51
96.3374576951
  0
ARC
  5
111
330
1F
100
AcDbEntity
  8
0
  6
Continuous
 62
     7
370
    25
100
AcDbCircle
 10
95.0778290278
 20
806.3845780109
 30
0.0
 40
26.50000000000004
100
AcDbArc
 50
81.0193292213
 51
81.9374576951
  0
ARC
  5
112
330
1F
100
AcDbEntity
  8
0
  6
Continuous
 62
     7
370
    25
100
AcDbCircle
 10
95.0778290278
 20
806.3845780109
 30
0.0
 40
26.50000000000002
100
AcDbArc
 50
66.6193292213
 51
67.5374576951
  0
ARC
  5
113
330
1F
100
AcDbEntity
  8
0
  6
Continuous
 62
     7
370
    25
100
AcDbCircle
 10
95.0778290278
 20
806.3845780109
 30
0.0
 40
26.50000000000001
100
AcDbArc
 50
138.6193292213
 51
139.5374576951
  0
ARC
  5
114
330
1F
100
AcDbEntity
  8
0
  6
Continuous
 62
     7
370
    25
100
AcDbCircle
 10
95.0778290278
 20
806.3845780109
 30
0.0
 40
26.50000000000001
100
AcDbArc
 50
153.0193292213
 51
153.9374576951
  0
ARC
  5
115
330
1F
100
AcDbEntity
  8
0
  6
Continuous
 62
     7
370
    25
100
AcDbCircle
 10
95.0778290278
 20
806.3845780109
 30
0.0
 40
26.49999999999998
100
AcDbArc
 50
109.8193292213
 51
110.7374576951
  0
ARC
  5
116
330
1F
100
AcDbEntity
  8
0
  6
Continuous
 62
     7
370
    25
100
AcDbCircle
 10
95.0778290278
 20
806.3845780109
 30
0.0
 40
26.50000000000002
100
AcDbArc
 50
124.2193292213
 51
125.1374576951
  0
ARC
  5
117
330
1F
100
AcDbEntity
  8
0
  6
Continuous
 62
     7
370
    25
100
AcDbCircle
 10
95.0778290278
 20
806.3845780109
 30
0.0
 40
26.50000000000002
100
AcDbArc
 50
239.4193292213
 51
240.3374576951
  0
ARC
  5
118
330
1F
100
AcDbEntity
  8
0
  6
Continuous
 62
     7
370
    25
100
AcDbCircle
 10
95.0778290278
 20
806.3845780109
 30
0.0
 40
26.50000000000007
100
AcDbArc
 50
225.0193292213
 51
225.9374576951
  0
ARC
  5
119
330
1F
100
AcDbEntity
  8
0
  6
Continuous
 62
     7
370
    25
100
AcDbCircle
 10
95.0778290278
 20
806.3845780109
 30
0.0
 40
26.50000000000001
100
AcDbArc
 50
253.8193292213
 51
254.7374576951
  0
ARC
  5
11A
330
1F
100
AcDbEntity
  8
0
  6
Continuous
 62
     7
370
    25
100
AcDbCircle
 10
95.0778290278
 20
806.3845780109
 30
0.0
 40
26.50000000000009
100
AcDbArc
 50
268.2193292213
 51
269.1374576951
  0
ARC
  5
11B
330
1F
100
AcDbEntity
  8
0
  6
Continuous
 62
     7
370
    25
100
AcDbCircle
 10
95.0778290278
 20
806.3845780109
 30
0.0
 40
26.50000000000006
100
AcDbArc
 50
210.6193292213
 51
211.5374576951
  0
ARC
  5
11C
330
1F
100
AcDbEntity
  8
0
  6
Continuous
 62
     7
370
    25
100
AcDbCircle
 10
95.0778290278
 20
806.3845780109
 30
0.0
 40
26.50000000000002
100
AcDbArc
 50
196.2193292213
 51
197.1374576951
  0
ARC
  5
11D
330
1F
100
AcDbEntity
  8
0
  6
Continuous
 62
     7
370
    25
100
AcDbCircle
 10
95.0778290278
 20
806.3845780109
 30
0.0
 40
26.50000000000001
100
AcDbArc
 50
181.8193292213
 51
182.7374576951
  0
ARC
  5
11E
330
1F
100
AcDbEntity
  8
0
  6
Continuous
 62
     7
370
    25
100
AcDbCircle
 10
95.0778290278
 20
806.3845780109
 30
0.0
 40
26.50000000000002
100
AcDbArc
 50
167.4193292213
 51
168.3374576951
  0
ARC
  5
11F
330
1F
100
AcDbEntity
  8
0
  6
Continuous
 62
     7
370
    25
100
AcDbCircle
 10
95.0778290278
 20
806.3845780109
 30
0.0
 40
26.49999999999997
100
AcDbArc
 50
23.4193292213
 51
24.3374576951
  0
ARC
  5
120
330
1F
100
AcDbEntity
  8
0
  6
Continuous
 62
     7
370
    25
100
AcDbCircle
 10
95.0778290278
 20
806.3845780109
 30
0.0
 40
26.49999999999999
100
AcDbArc
 50
9.0193292213
 51
9.9374576951
  0
ARC
  5
121
330
1F
100
AcDbEntity
  8
0
  6
Continuous
 62
     7
370
    25
100
AcDbCircle
 10
95.0778290278
 20
806.3845780109
 30
0.0
 40
26.50000000000001
100
AcDbArc
 50
340.2193292213
 51
341.1374576951
  0
ARC
  5
122
330
1F
100
AcDbEntity
  8
0
  6
Continuous
 62
     7
370
    25
100
AcDbCircle
 10
95.0778290278
 20
806.3845780109
 30
0.0
 40
26.50000000000002
100
AcDbArc
 50
354.6193292213
 51
355.5374576951
  0
ARC
  5
123
330
1F
100
AcDbEntity
  8
0
  6
Continuous
 62
     7
370
    25
100
AcDbCircle
 10
95.0778290278
 20
806.3845780109
 30
0.0
 40
26.5000000000001
100
AcDbArc
 50
282.6193292213
 51
283.5374576951
  0
ARC
  5
124
330
1F
100
AcDbEntity
  8
0
  6
Continuous
 62
     7
370
    25
100
AcDbCircle
 10
95.0778290278
 20
806.3845780109
 30
0.0
 40
26.50000000000004
100
AcDbArc
 50
297.0193292213
 51
297.9374576951
  0
ARC
  5
125
330
1F
100
AcDbEntity
  8
0
  6
Continuous
 62
     7
370
    25
100
AcDbCircle
 10
95.0778290278
 20
806.3845780109
 30
0.0
 40
26.50000000000003
100
AcDbArc
 50
325.8193292213
 51
326.7374576951
  0
ARC
  5
126
330
1F
100
AcDbEntity
  8
0
  6
Continuous
 62
     7
370
    25
100
AcDbCircle
 10
95.0778290278
 20
806.3845780109
 30
0.0
 40
26.5
100
AcDbArc
 50
311.4193292213
 51
312.3374576951
  0
ARC
  5
127
330
1F
100
AcDbEntity
  8
0
  6
Continuous
 62
     7
370
    25
100
AcDbCircle
 10
103.5373910347
 20
768.0451494019
 30
0.0
 40
4.000000000000006
100
AcDbArc
 50
221.4096221093
 51
138.5903778907
  0
LINE
  5
128
330
1F
100
AcDbEntity
  8
0
  6
Continuous
 62
     7
370
    25
100
AcDbLine
 10
100.5373910347
 20
765.3993980908
 30
0.0
 11
100.5373910347
 21
770.6909007129
 31
0.0
  0
LINE
  5
129
330
1F
100
AcDbEntity
  8
0
  6
Continuous
 62
     7
370
    25
100
AcDbLine
 10
103.0373910347
 20
783.0200865874
 30
0.0
 11
103.0373910347
 21
773.0200865874
 31
0.0
  0
LINE
  5
12A
330
1F
100
AcDbEntity
  8
0
  6
Continuous
 62
     7
370
    25
100
AcDbLine
 10
104.0373910347
 20
783.0200865874
 30
0.0
 11
103.0373910347
 21
783.0200865874
 31
0.0
  0
LINE
  5
12B
330
1F
100
AcDbEntity
  8
0
  6
Continuous
 62
     7
370
    25
100
AcDbLine
 10
104.0373910347
 20
773.0200865874
 30
0.0
 11
104.0373910347
 21
783.0200865874
 31
0.0
  0
ARC
  5
12C
330
1F
100
AcDbEntity
  8
0
  6
Continuous
 62
     7
370
    25
100
AcDbCircle
 10
103.5373910347
 20
768.0451494019
 30
0.0
 40
5.000000000000022
100
AcDbArc
 50
5.7391704773
 51
84.2608295227
  0
LINE
  5
12D
330
1F
100
AcDbEntity
  8
0
  6
Continuous
 62
     7
370
    25
100
AcDbLine
 10
118.5123282202
 20
768.5451494019
 30
0.0
 11
108.5123282202
 21
768.5451494019
 31
0.0
  0
LINE
  5
12E
330
1F
100
AcDbEntity
  8
0
  6
Continuous
 62
     7
370
    25
100
AcDbLine
 10
118.5123282202
 20
767.5451494019
 30
0.0
 11
118.5123282202
 21
768.5451494019
 31
0.0
  0
LINE
  5
12F
330
1F
100
AcDbEntity
  8
0
  6
Continuous
 62
     7
370
    25
100
AcDbLine
 10
108.5123282202
 20
767.5451494019
 30
0.0
 11
118.5123282202
 21
767.5451494019
 31
0.0
  0
ARC
  5
130
330
1F
100
AcDbEntity
  8
0
  6
Continuous
 62
     7
370
    25
100
AcDbCircle
 10
103.5373910347
 20
768.0451494019
 30
0.0
 40
5.00000000000002
100
AcDbArc
 50
275.7391704773
 51
354.2608295227
  0
LINE
  5
131
330
1F
100
AcDbEntity
  8
0
  6
Continuous
 62
     7
370
    25
100
AcDbLine
 10
104.0373910347
 20
753.0702122163
 30
0.0
 11
104.0373910347
 21
763.0702122163
 31
0.0
  0
LINE
  5
132
330
1F
100
AcDbEntity
  8
0
  6
Continuous
 62
     7
370
    25
100
AcDbLine
 10
103.0373910347
 20
753.0702122163
 30
0.0
 11
104.0373910347
 21
753.0702122163
 31
0.0
  0
LINE
  5
133
330
1F
100
AcDbEntity
  8
0
  6
Continuous
 62
     7
370
    25
100
AcDbLine
 10
103.0373910347
 20
763.0702122163
 30
0.0
 11
103.0373910347
 21
753.0702122163
 31
0.0
  0
ARC
  5
134
330
1F
100
AcDbEntity
  8
0
  6
Continuous
 62
     7
370
    25
100
AcDbCircle
 10
103.5373910347
 20
768.0451494019
 30
0.0
 40
5.000000000000025
100
AcDbArc
 50
185.7391704773
 51
264.2608295227
  0
LINE
  5
135
330
1F
100
AcDbEntity
  8
0
  6
Continuous
 62
     7
370
    25
100
AcDbLine
 10
88.5624538491
 20
767.5451494019
 30
0.0
 11
98.5624538491
 21
767.5451494019
 31
0.0
  0
LINE
  5
136
330
1F
100
AcDbEntity
  8
0
  6
Continuous
 62
     7
370
    25
100
AcDbLine
 10
88.5624538491
 20
768.5451494019
 30
0.0
 11
88.5624538491
 21
767.5451494019
 31
0.0
  0
LINE
  5
137
330
1F
100
AcDbEntity
  8
0
  6
Continuous
 62
     7
370
    25
100
AcDbLine
 10
98.5624538491
 20
768.5451494019
 30
0.0
 11
88.5624538491
 21
768.5451494019
 31
0.0
  0
ARC
  5
138
330
1F
100
AcDbEntity
  8
0
  6
Continuous
 62
     7
370
    25
100
AcDbCircle
 10
103.5373910347
 20
768.0451494019
 30
0.0
 40
5.000000000000022
100
AcDbArc
 50
95.7391704773
 51
174.2608295227
  0
ARC
  5
139
330
1F
100
AcDbEntity
  8
0
  6
Continuous
 62
     7
370
    25
100
AcDbCircle
 10
99.2901397261
 20
745.8650592349
 30
0.0
 40
4.000000000000017
100
AcDbArc
 50
221.4096221093
 51
138.5903778907
  0
LINE
  5
13A
330
1F
100
AcDbEntity
  8
0
  6
Continuous
 62
     7
370
    25
100
AcDbLine
 10
96.2901397261
 20
743.2193079238
 30
0.0
 11
96.2901397261
 21
748.5108105459
 31
0.0
  0
LINE
  5
13B
330
1F
100
AcDbEntity
  8
0
  6
Continuous
 62
     7
370
    25
100
AcDbLine
 10
98.7901397261
 20
760.8399964204
 30
0.0
 11
98.7901397261
 21
750.8399964204
 31
0.0
  0
LINE
  5
13C
330
1F
100
AcDbEntity
  8
0
  6
Continuous
 62
     7
370
    25
100
AcDbLine
 10
99.7901397261
 20
760.8399964204
 30
0.0
 11
98.7901397261
 21
760.8399964204
 31
0.0
  0
LINE
  5
13D
330
1F
100
AcDbEntity
  8
0
  6
Continuous
 62
     7
370
    25
100
AcDbLine
 10
99.7901397261
 20
750.8399964204
 30
0.0
 11
99.7901397261
 21
760.8399964204
 31
0.0
  0
ARC
  5
13E
330
1F
100
AcDbEntity
  8
0
  6
Continuous
 62
     7
370
    25
100
AcDbCircle
 10
99.2901397261
 20
745.8650592349
 30
0.0
 40
5.000000000000022
100
AcDbArc
 50
5.7391704773
 51
84.2608295227
  0
LINE
  5
13F
330
1F
100
AcDbEntity
  8
0
  6
Continuous
 62
     7
370
    25
100
AcDbLine
 10
114.2650769116
 20
746.3650592349
 30
0.0
 11
104.2650769116
 21
746.3650592349
 31
0.0
  0
LINE
  5
140
330
1F
100
AcDbEntity
  8
0
  6
Continuous
 62
     7
370
    25
100
AcDbLine
 10
114.2650769116
 20
745.3650592349
 30
0.0
 11
114.2650769116
 21
746.3650592349
 31
0.0
  0
LINE
  5
141
330
1F
100
AcDbEntity
  8
0
  6
Continuous
 62
     7
370
    25
100
AcDbLine
 10
104.2650769116
 20
745.3650592349
 30
0.0
 11
114.2650769116
 21
745.3650592349
 31
0.0
  0
ARC
  5
142
330
1F
100
AcDbEntity
  8
0
  6
Continuous
 62
     7
370
    25
100
AcDbCircle
 10
99.2901397261
 20
745.8650592349
 30
0.0
 40
4.999999999999994
100
AcDbArc
 50
275.7391704773
 51
354.2608295227
  0
LINE
  5
143
330
1F
100
AcDbEntity
  8
0
  6
Continuous
 62
     7
370
    25
100
AcDbLine
 10
99.7901397261
 20
730.8901220493
 30
0.0
 11
99.7901397261
 21
740.8901220493
 31
0.0
  0
LINE
  5
144
330
1F
100
AcDbEntity
  8
0
  6
Continuous
 62
     7
370
    25
100
AcDbLine
 10
98.7901397261
 20
730.8901220493
 30
0.0
 11
99.7901397261
 21
730.8901220493
 31
0.0
  0
LINE
  5
145
330
1F
100
AcDbEntity
  8
0
  6
Continuous
 62
     7
370
    25
100
AcDbLine
 10
98.7901397261
 20
740.8901220493
 30
0.0
 11
98.7901397261
 21
730.8901220493
 31
0.0
  0
ARC
  5
146
330
1F
100
AcDbEntity
  8
0
  6
Continuous
 62
     7
370
    25
100
AcDbCircle
 10
99.2901397261
 20
745.8650592349
 30
0.0
 40
4.999999999999996
100
AcDbArc
 50
185.7391704773
 51
264.2608295227
  0
LINE
  5
147
330
1F
100
AcDbEntity
  8
0
  6
Continuous
 62
     7
370
    25
100
AcDbLine
 10
84.3152025406
 20
745.3650592349
 30
0.0
 11
94.3152025406
 21
745.3650592349
 31
0.0
  0
LINE
  5
148
330
1F
100
AcDbEntity
  8
0
  6
Continuous
 62
     7
370
    25
100
AcDbLine
 10
84.3152025406
 20
746.3650592349
 30
0.0
 11
84.3152025406
 21
745.3650592349
 31
0.0
  0
LINE
  5
149
330
1F
100
AcDbEntity
  8
0
  6
Continuous
 62
     7
370
    25
100
AcDbLine
 10
94.3152025406
 20
746.3650592349
 30
0.0
 11
84.3152025406
 21
746.3650592349
 31
0.0
  0
ARC
  5
14A
330
1F
100
AcDbEntity
  8
0
  6
Continuous
 62
     7
370
    25
100
AcDbCircle
 10
99.2901397261
 20
745.8650592349
 30
0.0
 40
5.000000000000022
100
AcDbArc
 50
95.7391704773
 51
174.2608295227
  0
ARC
  5
14B
330
1F
100
AcDbEntity
  8
0
  6
Continuous
 62
     7
370
    25
100
AcDbCircle
 10
87.2562610185
 20
716.6062168869
 30
0.0
 40
4.000000000000017
100
AcDbArc
 50
221.4096221093
 51
138.5903778907
  0
LINE
  5
14C
330
1F
100
AcDbEntity
  8
0
  6
Continuous
 62
     7
370
    25
100
AcDbLine
 10
84.2562610185
 20
713.9604655758
 30
0.0
 11
84.2562610185
 21
719.251968198
 31
0.0
  0
LINE
  5
14D
330
1F
100
AcDbEntity
  8
0
  6
Continuous
 62
     7
370
    25
100
AcDbLine
 10
86.7562610185
 20
731.5811540724
 30
0.0
 11
86.7562610185
 21
721.5811540724
 31
0.0
  0
LINE
  5
14E
330
1F
100
AcDbEntity
  8
0
  6
Continuous
 62
     7
370
    25
100
AcDbLine
 10
87.7562610185
 20
731.5811540724
 30
0.0
 11
86.7562610185
 21
731.5811540724
 31
0.0
  0
LINE
  5
14F
330
1F
100
AcDbEntity
  8
0
  6
Continuous
 62
     7
370
    25
100
AcDbLine
 10
87.7562610185
 20
721.5811540724
 30
0.0
 11
87.7562610185
 21
731.5811540724
 31
0.0
  0
ARC
  5
150
330
1F
100
AcDbEntity
  8
0
  6
Continuous
 62
     7
370
    25
100
AcDbCircle
 10
87.2562610185
 20
716.6062168869
 30
0.0
 40
5.000000000000022
100
AcDbArc
 50
5.7391704773
 51
84.2608295227
  0
LINE
  5
151
330
1F
100
AcDbEntity
  8
0
  6
Continuous
 62
     7
370
    25
100
AcDbLine
 10
102.231198204
 20
717.1062168869
 30
0.0
 11
92.231198204
 21
717.1062168869
 31
0.0
  0
LINE
  5
152
330
1F
100
AcDbEntity
  8
0
  6
Continuous
 62
     7
370
    25
100
AcDbLine
 10
102.231198204
 20
716.1062168869
 30
0.0
 11
102.231198204
 21
717.1062168869
 31
0.0
  0
LINE
  5
153
330
1F
100
AcDbEntity
  8
0
  6
Continuous
 62
     7
370
    25
100
AcDbLine
 10
92.231198204
 20
716.1062168869
 30
0.0
 11
102.231198204
 21
716.1062168869
 31
0.0
  0
ARC
  5
154
330
1F
100
AcDbEntity
  8
0
  6
Continuous
 62
     7
370
    25
100
AcDbCircle
 10
87.2562610185
 20
716.6062168869
 30
0.0
 40
5.00000000000002
100
AcDbArc
 50
275.7391704773
 51
354.2608295227
  0
LINE
  5
155
330
1F
100
AcDbEntity
  8
0
  6
Continuous
 62
     7
370
    25
100
AcDbLine
 10
87.7562610185
 20
701.6312797014
 30
0.0
 11
87.7562610185
 21
711.6312797014
 31
0.0
  0
LINE
  5
156
330
1F
100
AcDbEntity
  8
0
  6
Continuous
 62
     7
370
    25
100
AcDbLine
 10
86.7562610185
 20
701.6312797014
 30
0.0
 11
87.7562610185
 21
701.6312797014
 31
0.0
  0
LINE
  5
157
330
1F
100
AcDbEntity
  8
0
  6
Continuous
 62
     7
370
    25
100
AcDbLine
 10
86.7562610185
 20
711.6312797014
 30
0.0
 11
86.7562610185
 21
701.6312797014
 31
0.0
  0
ARC
  5
158
330
1F
100
AcDbEntity
  8
0
  6
Continuous
 62
     7
370
    25
100
AcDbCircle
 10
87.2562610185
 20
716.6062168869
 30
0.0
 40
5.000000000000025
100
AcDbArc
 50
185.7391704773
 51
264.2608295227
  0
LINE
  5
159
330
1F
100
AcDbEntity
  8
0
  6
Continuous
 62
     7
370
    25
100
AcDbLine
 10
72.2813238329
 20
716.1062168869
 30
0.0
 11
82.2813238329
 21
716.1062168869
 31
0.0
  0
LINE
  5
15A
330
1F
100
AcDbEntity
  8
0
  6
Continuous
 62
     7
370
    25
100
AcDbLine
 10
72.2813238329
 20
717.1062168869
 30
0.0
 11
72.2813238329
 21
716.1062168869
 31
0.0
  0
LINE
  5
15B
330
1F
100
AcDbEntity
  8
0
  6
Continuous
 62
     7
370
    25
100
AcDbLine
 10
82.2813238329
 20
717.1062168869
 30
0.0
 11
72.2813238329
 21
717.1062168869
 31
0.0
  0
ARC
  5
15C
330
1F
100
AcDbEntity
  8
0
  6
Continuous
 62
     7
370
    25
100
AcDbCircle
 10
87.2562610185
 20
716.6062168869
 30
0.0
 40
5.000000000000022
100
AcDbArc
 50
95.7391704773
 51
174.2608295227
  0
ARC
  5
15D
330
1F
100
AcDbEntity
  8
0
  6
Continuous
 62
     7
370
    25
100
AcDbCircle
 10
104.7171830648
 20
723.4490106618
 30
0.0
 40
4.000000000000006
100
AcDbArc
 50
221.4096221093
 51
138.5903778907
  0
LINE
  5
15E
330
1F
100
AcDbEntity
  8
0
  6
Continuous
 62
     7
370
    25
100
AcDbLine
 10
101.7171830648
 20
720.8032593508
 30
0.0
 11
101.7171830648
 21
726.0947619729
 31
0.0
  0
LINE
  5
15F
330
1F
100
AcDbEntity
  8
0
  6
Continuous
 62
     7
370
    25
100
AcDbLine
 10
104.2171830648
 20
738.4239478474
 30
0.0
 11
104.2171830648
 21
728.4239478474
 31
0.0
  0
LINE
  5
160
330
1F
100
AcDbEntity
  8
0
  6
Continuous
 62
     7
370
    25
100
AcDbLine
 10
105.2171830648
 20
738.4239478474
 30
0.0
 11
104.2171830648
 21
738.4239478474
 31
0.0
  0
LINE
  5
161
330
1F
100
AcDbEntity
  8
0
  6
Continuous
 62
     7
370
    25
100
AcDbLine
 10
105.2171830648
 20
728.4239478474
 30
0.0
 11
105.2171830648
 21
738.4239478474
 31
0.0
  0
ARC
  5
162
330
1F
100
AcDbEntity
  8
0
  6
Continuous
 62
     7
370
    25
100
AcDbCircle
 10
104.7171830648
 20
723.4490106618
 30
0.0
 40
4.999999999999982
100
AcDbArc
 50
5.7391704773
 51
84.2608295227
  0
LINE
  5
163
330
1F
100
AcDbEntity
  8
0
  6
Continuous
 62
     7
370
    25
100
AcDbLine
 10
119.6921202504
 20
723.9490106618
 30
0.0
 11
109.6921202504
 21
723.9490106618
 31
0.0
  0
LINE
  5
164
330
1F
100
AcDbEntity
  8
0
  6
Continuous
 62
     7
370
    25
100
AcDbLine
 10
119.6921202504
 20
722.9490106618
 30
0.0
 11
119.6921202504
 21
723.9490106618
 31
0.0
  0
LINE
  5
165
330
1F
100
AcDbEntity
  8
0
  6
Continuous
 62
     7
370
    25
100
AcDbLine
 10
109.6921202504
 20
722.9490106618
 30
0.0
 11
119.6921202504
 21
722.9490106618
 31
0.0
  0
ARC
  5
166
330
1F
100
AcDbEntity
  8
0
  6
Continuous
 62
     7
370
    25
100
AcDbCircle
 10
104.7171830648
 20
723.4490106618
 30
0.0
 40
5.00000000000002
100
AcDbArc
 50
275.7391704773
 51
354.2608295227
  0
LINE
  5
167
330
1F
100
AcDbEntity
  8
0
  6
Continuous
 62
     7
370
    25
100
AcDbLine
 10
105.2171830648
 20
708.4740734763
 30
0.0
 11
105.2171830648
 21
718.4740734763
 31
0.0
  0
LINE
  5
168
330
1F
100
AcDbEntity
  8
0
  6
Continuous
 62
     7
370
    25
100
AcDbLine
 10
104.2171830648
 20
708.4740734763
 30
0.0
 11
105.2171830648
 21
708.4740734763
 31
0.0
  0
LINE
  5
169
330
1F
100
AcDbEntity
  8
0
  6
Continuous
 62
     7
370
    25
100
AcDbLine
 10
104.2171830648
 20
718.4740734763
 30
0.0
 11
104.2171830648
 21
708.4740734763
 31
0.0
  0
ARC
  5
16A
330
1F
100
AcDbEntity
  8
0
  6
Continuous
 62
     7
370
    25
100
AcDbCircle
 10
104.7171830648
 20
723.4490106618
 30
0.0
 40
5.000000000000025
100
AcDbArc
 50
185.7391704773
 51
264.2608295227
  0
LINE
  5
16B
330
1F
100
AcDbEntity
  8
0
  6
Continuous
 62
     7
370
    25
100
AcDbLine
 10
89.7422458793
 20
722.9490106618
 30
0.0
 11
99.7422458793
 21
722.9490106618
 31
0.0
  0
LINE
  5
16C
330
1F
100
AcDbEntity
  8
0
  6
Continuous
 62
     7
370
    25
100
AcDbLine
 10
89.7422458793
 20
723.9490106618
 30
0.0
 11
89.7422458793
 21
722.9490106618
 31
0.0
  0
LINE
  5
16D
330
1F
100
AcDbEntity
  8
0
  6
Continuous
 62
     7
370
    25
100
AcDbLine
 10
99.7422458793
 20
723.9490106618
 30
0.0
 11
89.7422458793
 21
723.9490106618
 31
0.0
  0
ARC
  5
16E
330
1F
100
AcDbEntity
  8
0
  6
Continuous
 62
     7
370
    25
100
AcDbCircle
 10
104.7171830648
 20
723.4490106618
 30
0.0
 40
4.999999999999994
100
AcDbArc
 50
95.7391704773
 51
174.2608295227
  0
ENDSEC
  0
SECTION
  2
OBJECTS
  0
DICTIONARY
  5
C
330
0
100
AcDbDictionary
281
     1
  3
ACAD_GROUP
350
D
  3
ACAD_LAYOUT
350
1A
  3
ACAD_MLINESTYLE
350
17
  3
ACAD_PLOTSETTINGS
350
19
  3
ACAD_PLOTSTYLENAME
350
E
  3
ACAD_SCALELIST
350
47
  3
DWGPROPS
350
16F
  0
DICTIONARY
  5
D
102
{ACAD_REACTORS
330
C
102
}
330
C
100
AcDbDictionary
281
     1
  0
DICTIONARY
  5
1A
102
{ACAD_REACTORS
330
C
102
}
330
C
100
AcDbDictionary
281
     1
  3
Layout1
350
1E
  3
Layout2
350
26
  3
Model
350
22
  0
DICTIONARY
  5
17
102
{ACAD_REACTORS
330
C
102
}
330
C
100
AcDbDictionary
281
     1
  3
Standard
350
18
  0
DICTIONARY
  5
19
102
{ACAD_REACTORS
330
C
102
}
330
C
100
AcDbDictionary
281
     1
  0
ACDBDICTIONARYWDFLT
  5
E
102
{ACAD_REACTORS
330
C
102
}
330
C
100
AcDbDictionary
281
     1
  3
Normal
350
F
100
AcDbDictionaryWithDefault
340
F
  0
DICTIONARY
  5
47
102
{ACAD_REACTORS
330
C
102
}
330
C
100
AcDbDictionary
281
     1
  3
A0
350
48
  3
A1
350
49
  3
A2
350
4A
  3
A3
350
4B
  3
A4
350
4C
  3
A5
350
4D
  3
A6
350
4E
  3
A7
350
4F
  3
A8
350
50
  3
A9
350
51
  3
B0
350
52
  3
B1
350
53
  3
B2
350
54
  3
B3
350
55
  3
B4
350
56
  3
B5
350
57
  3
B6
350
58
  3
B7
350
59
  3
B8
350
5A
  3
B9
350
5B
  3
C0
350
5C
  3
C1
350
5D
  3
C2
350
5E
  3
C3
350
5F
  3
C4
350
60
  3
C5
350
61
  3
C6
350
62
  3
C7
350
63
  3
C8
350
64
  3
C9
350
65
  3
D0
350
66
  3
D1
350
67
  3
D2
350
68
  0
XRECORD
  5
16F
102
{ACAD_REACTORS
330
C
102
}
330
C
100
AcDbXrecord
280
     1
  1
DWGPROPS COOKIE
  2

  3

  4

  6

  7

  8
Nilesh Amarathunge
  9

300
=
301
=
302
=
303
=
304
=
305
=
306
=
307
=
308
=
309
=
 40
0.0
 41
2460748.640502593
 42
2460748.640503125
  1

 90
        0
  0
LAYOUT
  5
1E
102
{ACAD_REACTORS
330
1A
102
}
330
1A
100
AcDbPlotSettings
  1

  2
none_device
  4

  6

 40
0.0
 41
0.0
 42
0.0
 43
0.0
 44
0.0
 45
0.0
 46
0.0
 47
0.0
 48
0.0
 49
0.0
140
0.0
141
0.0
142
1.0
143
1.0
 70
   688
 72
     1
 73
     0
 74
     5
  7

 75
    16
147
1.0
148
0.0
149
0.0
100
AcDbLayout
  1
Layout1
 70
     1
 71
     1
 10
0.0
 20
0.0
 11
420.0
 21
297.0
 12
0.0
 22
0.0
 32
0.0
 14
1.0000000000E+20
 24
1.0000000000E+20
 34
1.0000000000E+20
 15
-1.0000000000E+20
 25
-1.0000000000E+20
 35
-1.0000000000E+20
146
0.0
 13
0.0
 23
0.0
 33
0.0
 16
1.0
 26
0.0
 36
0.0
 17
0.0
 27
1.0
 37
0.0
 76
     0
330
1B
  0
LAYOUT
  5
26
102
{ACAD_REACTORS
330
1A
102
}
330
1A
100
AcDbPlotSettings
  1

  2
none_device
  4

  6

 40
0.0
 41
0.0
 42
0.0
 43
0.0
 44
0.0
 45
0.0
 46
0.0
 47
0.0
 48
0.0
 49
0.0
140
0.0
141
0.0
142
1.0
143
1.0
 70
   688
 72
     1
 73
     0
 74
     5
  7

 75
    16
147
1.0
148
0.0
149
0.0
100
AcDbLayout
  1
Layout2
 70
     1
 71
     2
 10
0.0
 20
0.0
 11
0.0
 21
0.0
 12
0.0
 22
0.0
 32
0.0
 14
0.0
 24
0.0
 34
0.0
 15
0.0
 25
0.0
 35
0.0
146
0.0
 13
0.0
 23
0.0
 33
0.0
 16
1.0
 26
0.0
 36
0.0
 17
0.0
 27
1.0
 37
0.0
 76
     0
330
23
  0
LAYOUT
  5
22
102
{ACAD_REACTORS
330
1A
102
}
330
1A
100
AcDbPlotSettings
  1

  2
none_device
  4
Letter_(8.50_x_11.00_Inches)
  6

 40
6.35
 41
6.35
 42
6.35000508
 43
6.35000508
 44
215.9
 45
279.4
 46
0.0
 47
0.0
 48
0.0
 49
0.0
140
0.0
141
0.0
142
1.0
143
1.0
 70
  1712
 72
     1
 73
     0
 74
     0
  7

 75
     0
147
1.0
148
0.0
149
0.0
100
AcDbLayout
  1
Model
 70
     1
 71
     0
 10
0.0
 20
0.0
 11
1189.0
 21
841.0
 12
0.0
 22
0.0
 32
0.0
 14
0.0
 24
0.0
 34
0.0
 15
1189.0
 25
841.0
 35
0.0
146
0.0
 13
0.0
 23
0.0
 33
0.0
 16
1.0
 26
0.0
 36
0.0
 17
0.0
 27
1.0
 37
0.0
 76
     0
330
1F
331
29
  0
MLINESTYLE
  5
18
102
{ACAD_REACTORS
330
17
102
}
330
17
100
AcDbMlineStyle
  2
Standard
 70
     0
  3

 62
   256
 51
90.0
 52
90.0
 71
     2
 49
0.5
 62
   256
  6
BYLAYER
 49
-0.5
 62
   256
  6
BYLAYER
  0
ACDBPLACEHOLDER
  5
F
102
{ACAD_REACTORS
330
E
102
}
330
E
  0
SCALE
  5
48
102
{ACAD_REACTORS
330
47
102
}
330
47
100
AcDbScale
 70
     0
300
1:1
140
1.0
141
1.0
290
     1
  0
SCALE
  5
49
102
{ACAD_REACTORS
330
47
102
}
330
47
100
AcDbScale
 70
     0
300
1:2
140
1.0
141
2.0
290
     0
  0
SCALE
  5
4A
102
{ACAD_REACTORS
330
47
102
}
330
47
100
AcDbScale
 70
     0
300
1:4
140
1.0
141
4.0
290
     0
  0
SCALE
  5
4B
102
{ACAD_REACTORS
330
47
102
}
330
47
100
AcDbScale
 70
     0
300
1:5
140
1.0
141
5.0
290
     0
  0
SCALE
  5
4C
102
{ACAD_REACTORS
330
47
102
}
330
47
100
AcDbScale
 70
     0
300
1:8
140
1.0
141
8.0
290
     0
  0
SCALE
  5
4D
102
{ACAD_REACTORS
330
47
102
}
330
47
100
AcDbScale
 70
     0
300
1:10
140
1.0
141
10.0
290
     0
  0
SCALE
  5
4E
102
{ACAD_REACTORS
330
47
102
}
330
47
100
AcDbScale
 70
     0
300
1:16
140
1.0
141
16.0
290
     0
  0
SCALE
  5
4F
102
{ACAD_REACTORS
330
47
102
}
330
47
100
AcDbScale
 70
     0
300
1:20
140
1.0
141
20.0
290
     0
  0
SCALE
  5
50
102
{ACAD_REACTORS
330
47
102
}
330
47
100
AcDbScale
 70
     0
300
1:30
140
1.0
141
30.0
290
     0
  0
SCALE
  5
51
102
{ACAD_REACTORS
330
47
102
}
330
47
100
AcDbScale
 70
     0
300
1:40
140
1.0
141
40.0
290
     0
  0
SCALE
  5
52
102
{ACAD_REACTORS
330
47
102
}
330
47
100
AcDbScale
 70
     0
300
1:50
140
1.0
141
50.0
290
     0
  0
SCALE
  5
53
102
{ACAD_REACTORS
330
47
102
}
330
47
100
AcDbScale
 70
     0
300
1:100
140
1.0
141
100.0
290
     0
  0
SCALE
  5
54
102
{ACAD_REACTORS
330
47
102
}
330
47
100
AcDbScale
 70
     0
300
2:1
140
2.0
141
1.0
290
     0
  0
SCALE
  5
55
102
{ACAD_REACTORS
330
47
102
}
330
47
100
AcDbScale
 70
     0
300
4:1
140
4.0
141
1.0
290
     0
  0
SCALE
  5
56
102
{ACAD_REACTORS
330
47
102
}
330
47
100
AcDbScale
 70
     0
300
8:1
140
8.0
141
1.0
290
     0
  0
SCALE
  5
57
102
{ACAD_REACTORS
330
47
102
}
330
47
100
AcDbScale
 70
     0
300
10:1
140
10.0
141
1.0
290
     0
  0
SCALE
  5
58
102
{ACAD_REACTORS
330
47
102
}
330
47
100
AcDbScale
 70
     0
300
100:1
140
100.0
141
1.0
290
     0
  0
SCALE
  5
59
102
{ACAD_REACTORS
330
47
102
}
330
47
100
AcDbScale
 70
     0
300
1/128" = 1'-0"
140
0.0078125
141
12.0
290
     0
  0
SCALE
  5
5A
102
{ACAD_REACTORS
330
47
102
}
330
47
100
AcDbScale
 70
     0
300
1/64" = 1'-0"
140
0.015625
141
12.0
290
     0
  0
SCALE
  5
5B
102
{ACAD_REACTORS
330
47
102
}
330
47
100
AcDbScale
 70
     0
300
1/32" = 1'-0"
140
0.03125
141
12.0
290
     0
  0
SCALE
  5
5C
102
{ACAD_REACTORS
330
47
102
}
330
47
100
AcDbScale
 70
     0
300
1/16" = 1'-0"
140
0.0625
141
12.0
290
     0
  0
SCALE
  5
5D
102
{ACAD_REACTORS
330
47
102
}
330
47
100
AcDbScale
 70
     0
300
3/32" = 1'-0"
140
0.09375
141
12.0
290
     0
  0
SCALE
  5
5E
102
{ACAD_REACTORS
330
47
102
}
330
47
100
AcDbScale
 70
     0
300
1/8" = 1'-0"
140
0.125
141
12.0
290
     0
  0
SCALE
  5
5F
102
{ACAD_REACTORS
330
47
102
}
330
47
100
AcDbScale
 70
     0
300
3/16" = 1'-0"
140
0.1875
141
12.0
290
     0
  0
SCALE
  5
60
102
{ACAD_REACTORS
330
47
102
}
330
47
100
AcDbScale
 70
     0
300
1/4" = 1'-0"
140
0.25
141
12.0
290
     0
  0
SCALE
  5
61
102
{ACAD_REACTORS
330
47
102
}
330
47
100
AcDbScale
 70
     0
300
3/8" = 1'-0"
140
0.375
141
12.0
290
     0
  0
SCALE
  5
62
102
{ACAD_REACTORS
330
47
102
}
330
47
100
AcDbScale
 70
     0
300
1/2" = 1'-0"
140
0.5
141
12.0
290
     0
  0
SCALE
  5
63
102
{ACAD_REACTORS
330
47
102
}
330
47
100
AcDbScale
 70
     0
300
3/4" = 1'-0"
140
0.75
141
12.0
290
     0
  0
SCALE
  5
64
102
{ACAD_REACTORS
330
47
102
}
330
47
100
AcDbScale
 70
     0
300
1" = 1'-0"
140
1.0
141
12.0
290
     0
  0
SCALE
  5
65
102
{ACAD_REACTORS
330
47
102
}
330
47
100
AcDbScale
 70
     0
300
1-1/2" = 1'-0"
140
1.5
141
12.0
290
     0
  0
SCALE
  5
66
102
{ACAD_REACTORS
330
47
102
}
330
47
100
AcDbScale
 70
     0
300
3" = 1'-0"
140
3.0
141
12.0
290
     0
  0
SCALE
  5
67
102
{ACAD_REACTORS
330
47
102
}
330
47
100
AcDbScale
 70
     0
300
6" = 1'-0"
140
6.0
141
12.0
290
     0
  0
SCALE
  5
68
102
{ACAD_REACTORS
330
47
102
}
330
47
100
AcDbScale
 70
     0
300
1'-0" = 1'-0"
140
12.0
141
12.0
290
     0
  0
ENDSEC
  0
EOF
